<?xml version="1.0" encoding="UTF-8" standalone="no"?>
<!DOCTYPE svg PUBLIC "-//W3C//DTD SVG 1.1//EN" "http://www.w3.org/Graphics/SVG/1.1/DTD/svg11.dtd">
<svg width="100%" height="100%" viewBox="0 0 683 683" version="1.1" xmlns="http://www.w3.org/2000/svg" xmlns:xlink="http://www.w3.org/1999/xlink" xml:space="preserve" xmlns:serif="http://www.serif.com/" style="fill-rule:evenodd;clip-rule:evenodd;stroke-linejoin:round;stroke-miterlimit:2;">
    <g transform="matrix(1.33333,0,0,1.33333,0,0)">
        <path d="M207,65L264,65C265.99,65 267.909,65.742 269.381,67.08L278.093,75L304,75C306.892,75 309.559,76.561 310.975,79.082L483.975,387.082C485.386,389.594 485.337,392.671 483.847,395.137L454.847,443.137C453.399,445.535 450.801,447 448,447L83,447C79.557,447 76.499,444.797 75.411,441.53L74.234,438L64,438C61.242,438 58.678,436.579 57.216,434.24L27.216,386.24C25.667,383.762 25.593,380.638 27.021,378.089L78.021,287.089C78.71,285.86 79.71,284.836 80.922,284.118L105.992,269.261L169.404,150.124L165.325,136.257C164.719,134.197 164.967,131.981 166.012,130.105L200.012,69.105C201.425,66.571 204.099,65 207,65ZM211.7,81L181.622,134.963L185.675,148.743C186.266,150.751 186.046,152.911 185.062,154.759L119.062,278.759C118.373,280.054 117.341,281.134 116.078,281.882L90.928,296.786L43.295,381.778L68.434,422L80,422C83.443,422 86.501,424.203 87.589,427.47L88.766,431L443.487,431L467.742,390.853L299.318,91L275,91C273.01,91 271.091,90.258 269.619,88.92L260.907,81L211.7,81Z" style="fill:rgb(181, 187, 196);"/>
    </g>
    <g transform="matrix(1.33333,0,0,1.33333,0,0)">
        <path d="M253.004,166.133L359.004,358.133C360.372,360.612 360.328,363.628 358.89,366.066C357.451,368.504 354.831,370 352,370L240.642,370L244.23,377.575C245.404,380.054 245.227,382.961 243.76,385.278C242.294,387.595 239.742,389 237,389L131,389C128.177,389 125.563,387.512 124.121,385.085C122.68,382.658 122.625,379.65 123.976,377.172L238.976,166.172C240.373,163.607 243.058,162.008 245.978,162C248.899,161.992 251.592,163.577 253.004,166.133ZM246.045,186.634L144.471,373L224.358,373L220.77,365.425C219.596,362.946 219.773,360.039 221.24,357.722C222.706,355.405 225.258,354 228,354L338.445,354L246.045,186.634Z" style="fill:rgb(181, 187, 196);"/>
    </g>
</svg>
