<?xml version="1.0" encoding="UTF-8" standalone="no"?>
<!DOCTYPE svg PUBLIC "-//W3C//DTD SVG 1.1//EN" "http://www.w3.org/Graphics/SVG/1.1/DTD/svg11.dtd">
<svg width="100%" height="100%" viewBox="0 0 512 512" version="1.1" xmlns="http://www.w3.org/2000/svg" xmlns:xlink="http://www.w3.org/1999/xlink" xml:space="preserve" xmlns:serif="http://www.serif.com/" style="fill-rule:evenodd;clip-rule:evenodd;stroke-linejoin:round;stroke-miterlimit:2;">
    <g id="Layer1">
        <path d="M347,40C353.516,92.491 305.191,142.205 261.049,139C254.333,97.89 290.38,48.721 347,40ZM330.674,60.653C300.509,71.777 279.879,96.73 276.646,121.674C285.617,119.397 294.355,114.618 302.122,108.268C316.344,96.638 327.481,79.527 330.674,60.653Z" style="fill:rgb(181, 187, 196);"/>
        <path d="M426,187C362.715,232.687 360.578,314.858 437.817,358C423.943,398.259 400.903,435.701 368,464C358.635,470.556 335.307,474.528 311,464C285.035,452.754 258.478,450.989 231,464C205.148,475.478 186.495,473.811 174,464C154.049,448.335 138.98,428.549 126,408C75.25,323.307 73.754,225.274 120,179C148.768,153.227 178.996,133.882 235,156C253.532,165.722 271.021,166.248 294,156C348.105,134.139 392.487,144.292 426,187ZM402.936,185.185C375.654,158.739 341.139,154.285 300.245,170.734C272.298,183.13 250.914,182.176 228.373,170.587C209.503,163.237 194.107,161.122 180.81,162.967C160.694,165.756 145.756,177.433 131.012,190.618C115.099,206.721 106.139,230.082 103.436,256.816C99.054,300.163 111.193,352.092 139.634,399.625C151.633,418.598 165.457,436.949 183.881,451.416C192.771,458.396 205.979,457.573 224.327,449.457C256.279,434.387 287.162,436.239 317.359,449.318C334.599,456.785 351.134,455.727 358.282,451.251C385.364,427.731 405.154,397.505 418.24,364.76C381.812,340.33 364.488,307.143 363.224,274.066C362.015,242.454 375.577,210.339 402.936,185.185Z" style="fill:rgb(181, 187, 196);"/>
    </g>
</svg>
