<?xml version="1.0" encoding="UTF-8" standalone="no"?>
<!DOCTYPE svg PUBLIC "-//W3C//DTD SVG 1.1//EN" "http://www.w3.org/Graphics/SVG/1.1/DTD/svg11.dtd">
<svg width="100%" height="100%" viewBox="0 0 512 512" version="1.1" xmlns="http://www.w3.org/2000/svg" xmlns:xlink="http://www.w3.org/1999/xlink" xml:space="preserve" xmlns:serif="http://www.serif.com/" style="fill-rule:evenodd;clip-rule:evenodd;stroke-linejoin:round;stroke-miterlimit:2;">
    <path d="M151.365,443.003C76.831,424.165 35.902,370.925 33.719,271.326C33.229,248.998 34.437,225.562 34.356,197L229,196L384.312,196L395,196C405.932,196 421.321,196 421.296,196C458.611,195.52 487.27,226.444 488.348,260.857C489.769,306.236 475.624,326.793 457.235,344.37L457.214,344.39C422.623,376.984 385.75,397.246 347.092,407.722C346.886,407.777 346.68,407.825 346.473,407.864C330.036,423.71 309.357,435.728 284.266,443.003L349,443.003C353.415,443.003 357,446.588 357,451.003C357,455.419 353.415,459.003 349,459.003L77,459.003C72.585,459.003 69,455.419 69,451.003C69,446.588 72.585,443.003 77,443.003L151.365,443.003ZM394.942,212C394.983,232.48 395.42,251.892 395.562,270.197C395.906,314.707 386.206,354.154 365.752,384.754C393.753,373.832 420.637,356.866 446.22,332.765C461.892,317.78 473.568,300.084 472.355,261.358C471.537,235.21 449.844,211.627 421.436,212L394.942,212ZM229.041,212L50.279,212.918C50.032,234.388 49.322,253.041 49.715,270.976C50.993,329.275 65.899,370.522 94.992,396.936C124.299,423.544 167.238,434.73 222.079,435C276.306,435.267 316.081,418.655 341.964,389.468C368.108,359.985 379.934,318.276 379.563,270.321C379.421,251.975 378.984,232.522 378.942,212L229.041,212Z" style="fill:rgb(181, 187, 196);"/>
    <path d="M189,48C189,43.585 192.585,40 197,40C201.415,40 205,43.585 205,48L205,154C205,158.415 201.415,162 197,162C192.585,162 189,158.415 189,154L189,48Z" style="fill:rgb(181, 187, 196);"/>
    <g transform="matrix(1,0,0,1,50.9776,0)">
        <path d="M189,48C189,43.585 192.585,40 197,40C201.415,40 205,43.585 205,48L205,154C205,158.415 201.415,162 197,162C192.585,162 189,158.415 189,154L189,48Z" style="fill:rgb(181, 187, 196);"/>
    </g>
    <g transform="matrix(1,0,0,1,106.016,0)">
        <path d="M189,48C189,43.585 192.585,40 197,40C201.415,40 205,43.585 205,48L205,154C205,158.415 201.415,162 197,162C192.585,162 189,158.415 189,154L189,48Z" style="fill:rgb(181, 187, 196);"/>
    </g>
</svg>
