<?xml version="1.0" encoding="UTF-8" standalone="no"?>
<!DOCTYPE svg PUBLIC "-//W3C//DTD SVG 1.1//EN" "http://www.w3.org/Graphics/SVG/1.1/DTD/svg11.dtd">
<svg width="100%" height="100%" viewBox="0 0 648 667" version="1.1" xmlns="http://www.w3.org/2000/svg" xmlns:xlink="http://www.w3.org/1999/xlink" xml:space="preserve" xmlns:serif="http://www.serif.com/" style="fill-rule:evenodd;clip-rule:evenodd;stroke-linejoin:round;stroke-miterlimit:2;">
    <g transform="matrix(1,0,0,1,-2059.95,187.227)">
        <g transform="matrix(1.82328,-1.97215e-32,4.62223e-32,1.82328,-1908.45,88.8365)">
            <g transform="matrix(1.88898,2.3997e-48,-9.70832e-48,1.91053,547.604,-1584.94)">
                <path d="M946.874,884.118L865.248,907.831C864.558,908.031 863.814,907.898 863.238,907.472C862.663,907.047 862.324,906.378 862.324,905.667L862.324,822.913C862.324,798.285 878.32,776.443 901.984,768.756C928.221,760.235 958.372,750.441 958.372,750.441C958.818,750.296 959.299,750.291 959.749,750.427L1034.34,772.901C1035.29,773.188 1035.95,774.052 1035.96,775.036C1035.97,776.02 1035.33,776.896 1034.38,777.202L951.436,803.985L951.436,878.091L960.614,875.425L960.614,811.79C960.614,810.824 961.237,809.965 962.162,809.654L1047.17,781.136C1047.87,780.902 1048.63,781.015 1049.23,781.438C1049.83,781.862 1050.18,782.544 1050.18,783.271L1050.18,871.557C1050.18,897.364 1032.65,919.951 1007.44,926.623C980.853,933.657 951.165,941.513 951.165,941.513C950.738,941.626 950.286,941.614 949.866,941.478C949.866,941.478 884.899,920.471 877.14,917.962C876.086,917.621 875.38,916.641 875.399,915.545C875.419,914.449 876.159,913.494 877.224,913.189L946.874,893.298L946.874,884.118ZM1045.62,786.418L965.176,813.406L965.176,877.113C965.176,878.113 964.509,878.994 963.538,879.276L951.436,882.792L951.436,894.994C951.436,895.999 950.764,896.882 949.788,897.161L884.846,915.708L950.64,936.983L1006.26,922.266C1029.47,916.122 1045.62,895.322 1045.62,871.557L1045.62,786.418ZM959.11,754.949L903.408,773.042C881.616,780.12 866.886,800.234 866.886,822.913L866.886,902.654L946.874,879.416L946.874,802.349C946.874,801.374 947.508,800.508 948.446,800.206L1026.1,775.133L959.11,754.949Z" style="fill:rgb(255,76,107);"/>
            </g>
        </g>
    </g>
</svg>
