<?xml version="1.0" encoding="UTF-8" standalone="no"?>
<!DOCTYPE svg PUBLIC "-//W3C//DTD SVG 1.1//EN" "http://www.w3.org/Graphics/SVG/1.1/DTD/svg11.dtd">
<svg width="100%" height="100%" viewBox="0 0 300 79" version="1.1" xmlns="http://www.w3.org/2000/svg" xmlns:xlink="http://www.w3.org/1999/xlink" xml:space="preserve" xmlns:serif="http://www.serif.com/" style="fill-rule:evenodd;clip-rule:evenodd;stroke-linejoin:round;stroke-miterlimit:2;">
    <g transform="matrix(1,0,0,1,-2519.04,-857.349)">
        <g transform="matrix(0.896006,0,0,0.896006,1017.4,202.409)">
            <g transform="matrix(0.451863,0,0,0.457018,1286.27,388.041)">
                <path d="M946.874,884.118L865.248,907.831C864.558,908.031 863.814,907.898 863.238,907.472C862.663,907.047 862.324,906.378 862.324,905.667L862.324,822.913C862.324,798.285 878.32,776.443 901.984,768.756C928.221,760.235 958.372,750.441 958.372,750.441C958.818,750.296 959.299,750.291 959.749,750.427L1034.34,772.901C1035.29,773.188 1035.95,774.052 1035.96,775.036C1035.97,776.02 1035.33,776.896 1034.38,777.202L951.436,803.985L951.436,878.091L960.614,875.425L960.614,811.79C960.614,810.824 961.237,809.965 962.162,809.654L1047.17,781.136C1047.87,780.902 1048.63,781.015 1049.23,781.438C1049.83,781.862 1050.18,782.544 1050.18,783.271L1050.18,871.557C1050.18,897.364 1032.65,919.951 1007.44,926.623C980.853,933.657 951.165,941.513 951.165,941.513C950.738,941.626 950.286,941.614 949.866,941.478C949.866,941.478 884.899,920.471 877.14,917.962C876.086,917.621 875.38,916.641 875.399,915.545C875.419,914.449 876.159,913.494 877.224,913.189L946.874,893.298L946.874,884.118ZM1045.62,786.418L965.176,813.406L965.176,877.113C965.176,878.113 964.509,878.994 963.538,879.276L951.436,882.792L951.436,894.994C951.436,895.999 950.764,896.882 949.788,897.161L884.846,915.708L950.64,936.983L1006.26,922.266C1029.47,916.122 1045.62,895.322 1045.62,871.557L1045.62,786.418ZM959.11,754.949L903.408,773.042C881.616,780.12 866.886,800.234 866.886,822.913L866.886,902.654L946.874,879.416L946.874,802.349C946.874,801.374 947.508,800.508 948.446,800.206L1026.1,775.133L959.11,754.949Z" style="fill:rgb(255,76,107);"/>
            </g>
            <g transform="matrix(0.795274,0,0,0.795274,-1714.31,602.409)">
                <g id="text">
                    <g>
                        <g transform="matrix(1.01914,0,0,1.01914,4227.3,28.1792)">
                            <path d="M200.693,137L200.693,140.906L174.375,140.906L174.375,169.568L200.693,169.568L200.693,173.475L174.375,173.475L174.375,206.043L170.469,206.043L170.469,137L200.693,137Z" style="fill:rgb(255,76,107);fill-rule:nonzero;"/>
                        </g>
                        <g transform="matrix(1.01914,0,0,1.01914,4227.3,28.1792)">
                            <rect x="209.189" y="137" width="3.906" height="69.043" style="fill:rgb(255,76,107);fill-rule:nonzero;"/>
                        </g>
                        <g transform="matrix(1.01914,0,0,1.01914,4227.3,28.1792)">
                            <path d="M266.611,195.154L266.611,137L270.518,137L270.518,207.41L228.281,148.133L228.281,206.043L224.375,206.043L224.375,135.926L266.611,195.154Z" style="fill:rgb(255,76,107);fill-rule:nonzero;"/>
                        </g>
                        <g transform="matrix(1.01914,0,0,1.01914,4227.3,28.1792)">
                            <path d="M315.83,137L315.83,140.906L285.215,140.906L285.215,169.568L315.83,169.568L315.83,173.475L285.215,173.475L285.215,202.137L315.83,202.137L315.83,206.043L281.309,206.043L281.309,137L315.83,137Z" style="fill:rgb(255,76,107);fill-rule:nonzero;"/>
                        </g>
                        <g transform="matrix(1.01914,0,0,1.01914,4227.3,28.1792)">
                            <path d="M339.561,137C350.921,137.065 359.727,140.239 365.977,146.521C372.878,153.455 376.328,161.788 376.328,171.521C376.328,181.32 372.878,189.669 365.977,196.57C359.727,202.82 350.921,205.978 339.561,206.043L326.768,206.043L326.768,137L339.561,137ZM330.674,141.053L330.674,202.039L339.512,202.039C349.44,202.039 357.269,199.272 362.998,193.738C369.118,187.618 372.178,180.213 372.178,171.521C372.178,162.863 369.118,155.457 362.998,149.305C357.269,143.803 349.44,141.053 339.512,141.053L330.674,141.053Z" style="fill:rgb(255,76,107);fill-rule:nonzero;"/>
                        </g>
                        <g transform="matrix(1.01914,0,0,1.01914,4227.3,28.1792)">
                            <rect x="385.313" y="137" width="3.906" height="69.043" style="fill:rgb(255,76,107);fill-rule:nonzero;"/>
                        </g>
                        <g transform="matrix(1.01914,0,0,1.01914,4227.3,28.1792)">
                            <path d="M400.84,137L422.422,196.277L444.004,137L448.105,137L422.422,207.654L396.738,137L400.84,137Z" style="fill:rgb(255,76,107);fill-rule:nonzero;"/>
                        </g>
                    </g>
                </g>
            </g>
            <g transform="matrix(0.220022,0,0,0.220022,1616.83,669.553)">
                <g transform="matrix(84.3216,0,0,84.3216,762.958,659.655)">
                    <path d="M0.418,0.005C0.349,0.005 0.288,-0.01 0.233,-0.041C0.178,-0.072 0.134,-0.114 0.103,-0.168C0.071,-0.222 0.055,-0.283 0.055,-0.35C0.055,-0.417 0.071,-0.478 0.103,-0.532C0.134,-0.586 0.178,-0.628 0.233,-0.659C0.288,-0.69 0.349,-0.705 0.418,-0.705C0.469,-0.705 0.515,-0.697 0.558,-0.681C0.601,-0.664 0.637,-0.64 0.667,-0.608L0.635,-0.575C0.579,-0.63 0.507,-0.658 0.42,-0.658C0.361,-0.658 0.308,-0.645 0.26,-0.618C0.212,-0.591 0.174,-0.555 0.147,-0.508C0.12,-0.46 0.106,-0.408 0.106,-0.35C0.106,-0.292 0.12,-0.24 0.147,-0.193C0.174,-0.146 0.212,-0.109 0.26,-0.082C0.308,-0.055 0.361,-0.042 0.42,-0.042C0.507,-0.042 0.578,-0.07 0.635,-0.126L0.667,-0.093C0.637,-0.061 0.6,-0.037 0.558,-0.02C0.515,-0.003 0.468,0.005 0.418,0.005Z" style="fill:rgb(34,60,77);fill-rule:nonzero;"/>
                </g>
                <g transform="matrix(84.3216,0,0,84.3216,823.332,659.655)">
                    <path d="M0.154,-0.408C0.17,-0.446 0.195,-0.475 0.229,-0.496C0.263,-0.516 0.304,-0.526 0.353,-0.526L0.353,-0.477L0.341,-0.478C0.283,-0.478 0.238,-0.46 0.205,-0.424C0.172,-0.387 0.156,-0.337 0.156,-0.272L0.156,-0L0.106,-0L0.106,-0.522L0.154,-0.522L0.154,-0.408Z" style="fill:rgb(34,60,77);fill-rule:nonzero;"/>
                </g>
                <g transform="matrix(84.3216,0,0,84.3216,855.374,659.655)">
                    <path d="M0.32,-0.041C0.354,-0.041 0.386,-0.047 0.415,-0.06C0.444,-0.072 0.468,-0.09 0.487,-0.114L0.516,-0.081C0.493,-0.053 0.465,-0.032 0.431,-0.018C0.397,-0.003 0.36,0.004 0.319,0.004C0.267,0.004 0.221,-0.007 0.18,-0.03C0.138,-0.053 0.107,-0.084 0.084,-0.124C0.061,-0.164 0.049,-0.21 0.049,-0.261C0.049,-0.312 0.06,-0.358 0.082,-0.398C0.103,-0.438 0.133,-0.469 0.172,-0.492C0.211,-0.515 0.254,-0.526 0.303,-0.526C0.348,-0.526 0.389,-0.516 0.426,-0.495C0.462,-0.474 0.491,-0.445 0.513,-0.408C0.534,-0.371 0.546,-0.329 0.548,-0.283L0.107,-0.197C0.12,-0.149 0.145,-0.111 0.183,-0.083C0.221,-0.055 0.267,-0.041 0.32,-0.041ZM0.303,-0.482C0.264,-0.482 0.228,-0.473 0.197,-0.455C0.166,-0.436 0.141,-0.411 0.124,-0.378C0.107,-0.345 0.098,-0.307 0.098,-0.265C0.098,-0.258 0.099,-0.247 0.1,-0.234L0.498,-0.312C0.493,-0.343 0.482,-0.372 0.465,-0.398C0.448,-0.424 0.425,-0.444 0.397,-0.46C0.369,-0.474 0.338,-0.482 0.303,-0.482Z" style="fill:rgb(34,60,77);fill-rule:nonzero;"/>
                </g>
                <g transform="matrix(84.3216,0,0,84.3216,905.714,659.655)">
                    <path d="M0.57,-0.522L0.57,-0L0.521,-0L0.521,-0.123C0.5,-0.082 0.471,-0.051 0.434,-0.029C0.397,-0.007 0.354,0.004 0.307,0.004C0.258,0.004 0.214,-0.007 0.175,-0.03C0.136,-0.053 0.105,-0.084 0.083,-0.124C0.06,-0.164 0.049,-0.21 0.049,-0.261C0.049,-0.312 0.06,-0.358 0.083,-0.399C0.105,-0.439 0.136,-0.47 0.175,-0.493C0.214,-0.515 0.258,-0.526 0.307,-0.526C0.354,-0.526 0.396,-0.515 0.433,-0.493C0.47,-0.471 0.499,-0.44 0.52,-0.401L0.52,-0.522L0.57,-0.522ZM0.31,-0.041C0.35,-0.041 0.386,-0.05 0.418,-0.069C0.449,-0.088 0.474,-0.114 0.493,-0.147C0.511,-0.18 0.52,-0.218 0.52,-0.261C0.52,-0.304 0.511,-0.342 0.493,-0.375C0.474,-0.408 0.449,-0.434 0.418,-0.453C0.386,-0.472 0.35,-0.481 0.31,-0.481C0.27,-0.481 0.234,-0.472 0.203,-0.453C0.171,-0.434 0.146,-0.408 0.128,-0.375C0.109,-0.342 0.1,-0.304 0.1,-0.261C0.1,-0.218 0.109,-0.18 0.128,-0.147C0.146,-0.114 0.171,-0.088 0.203,-0.069C0.234,-0.05 0.27,-0.041 0.31,-0.041Z" style="fill:rgb(34,60,77);fill-rule:nonzero;"/>
                </g>
                <g transform="matrix(84.3216,0,0,84.3216,962.631,659.655)">
                    <path d="M0.349,-0.033C0.336,-0.021 0.321,-0.012 0.302,-0.006C0.283,0.001 0.263,0.004 0.242,0.004C0.197,0.004 0.162,-0.009 0.137,-0.034C0.112,-0.059 0.1,-0.093 0.1,-0.138L0.1,-0.636L0.15,-0.636L0.15,-0.522L0.316,-0.522L0.316,-0.479L0.15,-0.479L0.15,-0.143C0.15,-0.109 0.158,-0.083 0.175,-0.066C0.191,-0.048 0.215,-0.039 0.247,-0.039C0.28,-0.039 0.307,-0.049 0.328,-0.068L0.349,-0.033Z" style="fill:rgb(34,60,77);fill-rule:nonzero;"/>
                </g>
                <g transform="matrix(84.3216,0,0,84.3216,994.842,659.655)">
                    <path d="M0.106,-0.522L0.156,-0.522L0.156,-0L0.106,-0L0.106,-0.522ZM0.131,-0.649C0.12,-0.649 0.11,-0.653 0.102,-0.661C0.094,-0.668 0.09,-0.678 0.09,-0.689C0.09,-0.7 0.094,-0.71 0.102,-0.718C0.11,-0.726 0.12,-0.73 0.131,-0.73C0.142,-0.73 0.152,-0.726 0.16,-0.719C0.168,-0.711 0.172,-0.701 0.172,-0.69C0.172,-0.679 0.168,-0.669 0.16,-0.661C0.152,-0.653 0.142,-0.649 0.131,-0.649Z" style="fill:rgb(34,60,77);fill-rule:nonzero;"/>
                </g>
                <g transform="matrix(84.3216,0,0,84.3216,1016.85,659.655)">
                    <path d="M0.525,-0.522L0.289,-0L0.238,-0L0.003,-0.522L0.056,-0.522L0.264,-0.055L0.474,-0.522L0.525,-0.522Z" style="fill:rgb(34,60,77);fill-rule:nonzero;"/>
                </g>
                <g transform="matrix(84.3216,0,0,84.3216,1060.11,659.655)">
                    <path d="M0.32,-0.041C0.354,-0.041 0.386,-0.047 0.415,-0.06C0.444,-0.072 0.468,-0.09 0.487,-0.114L0.516,-0.081C0.493,-0.053 0.465,-0.032 0.431,-0.018C0.397,-0.003 0.36,0.004 0.319,0.004C0.267,0.004 0.221,-0.007 0.18,-0.03C0.138,-0.053 0.107,-0.084 0.084,-0.124C0.061,-0.164 0.049,-0.21 0.049,-0.261C0.049,-0.312 0.06,-0.358 0.082,-0.398C0.103,-0.438 0.133,-0.469 0.172,-0.492C0.211,-0.515 0.254,-0.526 0.303,-0.526C0.348,-0.526 0.389,-0.516 0.426,-0.495C0.462,-0.474 0.491,-0.445 0.513,-0.408C0.534,-0.371 0.546,-0.329 0.548,-0.283L0.107,-0.197C0.12,-0.149 0.145,-0.111 0.183,-0.083C0.221,-0.055 0.267,-0.041 0.32,-0.041ZM0.303,-0.482C0.264,-0.482 0.228,-0.473 0.197,-0.455C0.166,-0.436 0.141,-0.411 0.124,-0.378C0.107,-0.345 0.098,-0.307 0.098,-0.265C0.098,-0.258 0.099,-0.247 0.1,-0.234L0.498,-0.312C0.493,-0.343 0.482,-0.372 0.465,-0.398C0.448,-0.424 0.425,-0.444 0.397,-0.46C0.369,-0.474 0.338,-0.482 0.303,-0.482Z" style="fill:rgb(34,60,77);fill-rule:nonzero;"/>
                </g>
                <g transform="matrix(84.3216,0,0,84.3216,1132.12,659.655)">
                    <path d="M0.122,-0.7L0.399,-0.7C0.472,-0.7 0.536,-0.685 0.593,-0.655C0.649,-0.625 0.693,-0.584 0.724,-0.531C0.755,-0.478 0.771,-0.417 0.771,-0.35C0.771,-0.283 0.755,-0.223 0.724,-0.17C0.693,-0.117 0.649,-0.075 0.593,-0.045C0.536,-0.015 0.472,-0 0.399,-0L0.122,-0L0.122,-0.7ZM0.395,-0.046C0.46,-0.046 0.517,-0.059 0.566,-0.085C0.615,-0.11 0.653,-0.146 0.68,-0.192C0.707,-0.238 0.72,-0.291 0.72,-0.35C0.72,-0.409 0.707,-0.462 0.68,-0.508C0.653,-0.554 0.615,-0.59 0.566,-0.616C0.517,-0.641 0.46,-0.654 0.395,-0.654L0.173,-0.654L0.173,-0.046L0.395,-0.046Z" style="fill:rgb(34,60,77);fill-rule:nonzero;"/>
                </g>
                <g transform="matrix(84.3216,0,0,84.3216,1201.77,659.655)">
                    <path d="M0.32,-0.041C0.354,-0.041 0.386,-0.047 0.415,-0.06C0.444,-0.072 0.468,-0.09 0.487,-0.114L0.516,-0.081C0.493,-0.053 0.465,-0.032 0.431,-0.018C0.397,-0.003 0.36,0.004 0.319,0.004C0.267,0.004 0.221,-0.007 0.18,-0.03C0.138,-0.053 0.107,-0.084 0.084,-0.124C0.061,-0.164 0.049,-0.21 0.049,-0.261C0.049,-0.312 0.06,-0.358 0.082,-0.398C0.103,-0.438 0.133,-0.469 0.172,-0.492C0.211,-0.515 0.254,-0.526 0.303,-0.526C0.348,-0.526 0.389,-0.516 0.426,-0.495C0.462,-0.474 0.491,-0.445 0.513,-0.408C0.534,-0.371 0.546,-0.329 0.548,-0.283L0.107,-0.197C0.12,-0.149 0.145,-0.111 0.183,-0.083C0.221,-0.055 0.267,-0.041 0.32,-0.041ZM0.303,-0.482C0.264,-0.482 0.228,-0.473 0.197,-0.455C0.166,-0.436 0.141,-0.411 0.124,-0.378C0.107,-0.345 0.098,-0.307 0.098,-0.265C0.098,-0.258 0.099,-0.247 0.1,-0.234L0.498,-0.312C0.493,-0.343 0.482,-0.372 0.465,-0.398C0.448,-0.424 0.425,-0.444 0.397,-0.46C0.369,-0.474 0.338,-0.482 0.303,-0.482Z" style="fill:rgb(34,60,77);fill-rule:nonzero;"/>
                </g>
                <g transform="matrix(84.3216,0,0,84.3216,1252.11,659.655)">
                    <path d="M0.238,0.004C0.196,0.004 0.156,-0.002 0.118,-0.015C0.08,-0.028 0.05,-0.044 0.029,-0.063L0.052,-0.103C0.073,-0.085 0.101,-0.07 0.135,-0.058C0.168,-0.046 0.203,-0.04 0.24,-0.04C0.293,-0.04 0.331,-0.049 0.357,-0.066C0.382,-0.083 0.394,-0.107 0.394,-0.138C0.394,-0.16 0.387,-0.177 0.374,-0.19C0.36,-0.203 0.343,-0.212 0.323,-0.218C0.303,-0.224 0.275,-0.23 0.24,-0.237C0.199,-0.244 0.165,-0.252 0.14,-0.261C0.115,-0.27 0.093,-0.284 0.075,-0.303C0.057,-0.322 0.048,-0.349 0.048,-0.383C0.048,-0.424 0.065,-0.458 0.1,-0.486C0.134,-0.513 0.183,-0.526 0.246,-0.526C0.279,-0.526 0.312,-0.521 0.345,-0.512C0.378,-0.503 0.404,-0.49 0.425,-0.475L0.402,-0.435C0.381,-0.45 0.356,-0.462 0.329,-0.47C0.302,-0.478 0.274,-0.482 0.245,-0.482C0.196,-0.482 0.16,-0.473 0.135,-0.455C0.11,-0.437 0.098,-0.413 0.098,-0.384C0.098,-0.361 0.105,-0.343 0.119,-0.33C0.133,-0.317 0.15,-0.307 0.171,-0.301C0.191,-0.294 0.219,-0.287 0.256,-0.28C0.297,-0.273 0.329,-0.265 0.355,-0.257C0.38,-0.248 0.401,-0.235 0.418,-0.216C0.435,-0.197 0.444,-0.172 0.444,-0.139C0.444,-0.096 0.426,-0.061 0.39,-0.035C0.354,-0.009 0.303,0.004 0.238,0.004Z" style="fill:rgb(34,60,77);fill-rule:nonzero;"/>
                </g>
                <g transform="matrix(84.3216,0,0,84.3216,1292.41,659.655)">
                    <path d="M0.106,-0.522L0.156,-0.522L0.156,-0L0.106,-0L0.106,-0.522ZM0.131,-0.649C0.12,-0.649 0.11,-0.653 0.102,-0.661C0.094,-0.668 0.09,-0.678 0.09,-0.689C0.09,-0.7 0.094,-0.71 0.102,-0.718C0.11,-0.726 0.12,-0.73 0.131,-0.73C0.142,-0.73 0.152,-0.726 0.16,-0.719C0.168,-0.711 0.172,-0.701 0.172,-0.69C0.172,-0.679 0.168,-0.669 0.16,-0.661C0.152,-0.653 0.142,-0.649 0.131,-0.649Z" style="fill:rgb(34,60,77);fill-rule:nonzero;"/>
                </g>
                <g transform="matrix(84.3216,0,0,84.3216,1314.42,659.655)">
                    <path d="M0.576,-0.522L0.576,-0.056C0.576,0.031 0.555,0.095 0.513,0.136C0.471,0.177 0.408,0.198 0.323,0.198C0.275,0.198 0.23,0.191 0.187,0.176C0.144,0.161 0.11,0.141 0.084,0.115L0.111,0.077C0.137,0.101 0.168,0.12 0.205,0.133C0.242,0.146 0.281,0.153 0.322,0.153C0.391,0.153 0.443,0.136 0.476,0.104C0.509,0.071 0.526,0.019 0.526,-0.05L0.526,-0.138C0.505,-0.1 0.475,-0.071 0.437,-0.05C0.399,-0.029 0.356,-0.019 0.309,-0.019C0.26,-0.019 0.216,-0.03 0.177,-0.052C0.137,-0.073 0.106,-0.103 0.083,-0.142C0.06,-0.181 0.049,-0.224 0.049,-0.273C0.049,-0.322 0.06,-0.365 0.083,-0.404C0.106,-0.443 0.137,-0.473 0.177,-0.494C0.216,-0.515 0.26,-0.526 0.309,-0.526C0.357,-0.526 0.4,-0.515 0.439,-0.494C0.478,-0.473 0.507,-0.443 0.528,-0.404L0.528,-0.522L0.576,-0.522ZM0.313,-0.064C0.354,-0.064 0.39,-0.073 0.423,-0.091C0.456,-0.108 0.481,-0.133 0.5,-0.165C0.518,-0.196 0.527,-0.232 0.527,-0.273C0.527,-0.314 0.518,-0.35 0.5,-0.381C0.481,-0.412 0.456,-0.437 0.423,-0.455C0.39,-0.472 0.354,-0.481 0.313,-0.481C0.272,-0.481 0.236,-0.472 0.204,-0.455C0.171,-0.437 0.146,-0.412 0.128,-0.381C0.109,-0.35 0.1,-0.314 0.1,-0.273C0.1,-0.232 0.109,-0.196 0.128,-0.165C0.146,-0.133 0.171,-0.108 0.204,-0.091C0.236,-0.073 0.272,-0.064 0.313,-0.064Z" style="fill:rgb(34,60,77);fill-rule:nonzero;"/>
                </g>
                <g transform="matrix(84.3216,0,0,84.3216,1371.93,659.655)">
                    <path d="M0.361,-0.526C0.426,-0.526 0.478,-0.507 0.516,-0.469C0.554,-0.431 0.573,-0.376 0.573,-0.305L0.573,-0L0.523,-0L0.523,-0.301C0.523,-0.36 0.508,-0.404 0.479,-0.435C0.449,-0.466 0.407,-0.481 0.354,-0.481C0.293,-0.481 0.244,-0.463 0.209,-0.426C0.174,-0.389 0.156,-0.34 0.156,-0.278L0.156,-0L0.106,-0L0.106,-0.522L0.154,-0.522L0.154,-0.409C0.172,-0.446 0.199,-0.474 0.235,-0.495C0.27,-0.516 0.312,-0.526 0.361,-0.526Z" style="fill:rgb(34,60,77);fill-rule:nonzero;"/>
                </g>
                <g transform="matrix(84.3216,0,0,84.3216,1450.35,659.655)">
                    <path d="M0.306,0.005C0.255,0.005 0.206,-0.004 0.16,-0.022C0.113,-0.039 0.077,-0.062 0.051,-0.09L0.074,-0.128C0.099,-0.102 0.132,-0.081 0.174,-0.065C0.215,-0.048 0.259,-0.04 0.305,-0.04C0.372,-0.04 0.422,-0.053 0.456,-0.078C0.49,-0.103 0.507,-0.136 0.507,-0.177C0.507,-0.208 0.498,-0.233 0.48,-0.252C0.462,-0.271 0.44,-0.285 0.413,-0.295C0.386,-0.305 0.35,-0.315 0.305,-0.326C0.254,-0.339 0.213,-0.351 0.182,-0.363C0.151,-0.375 0.124,-0.393 0.103,-0.419C0.081,-0.444 0.07,-0.477 0.07,-0.519C0.07,-0.553 0.079,-0.584 0.097,-0.613C0.115,-0.641 0.142,-0.663 0.18,-0.68C0.217,-0.697 0.263,-0.705 0.318,-0.705C0.357,-0.705 0.395,-0.699 0.432,-0.688C0.469,-0.677 0.502,-0.661 0.529,-0.642L0.51,-0.601C0.482,-0.62 0.451,-0.635 0.418,-0.645C0.384,-0.655 0.351,-0.66 0.318,-0.66C0.253,-0.66 0.204,-0.647 0.171,-0.621C0.138,-0.595 0.121,-0.561 0.121,-0.52C0.121,-0.489 0.13,-0.464 0.148,-0.445C0.166,-0.426 0.188,-0.412 0.215,-0.402C0.242,-0.392 0.278,-0.381 0.324,-0.37C0.375,-0.357 0.416,-0.345 0.447,-0.333C0.478,-0.321 0.504,-0.303 0.526,-0.279C0.547,-0.254 0.558,-0.221 0.558,-0.18C0.558,-0.146 0.549,-0.115 0.531,-0.087C0.512,-0.059 0.484,-0.037 0.446,-0.02C0.408,-0.003 0.361,0.005 0.306,0.005Z" style="fill:rgb(34,60,77);fill-rule:nonzero;"/>
                </g>
                <g transform="matrix(84.3216,0,0,84.3216,1501.7,659.655)">
                    <path d="M0.31,0.004C0.261,0.004 0.216,-0.007 0.177,-0.03C0.137,-0.053 0.106,-0.084 0.083,-0.125C0.06,-0.165 0.049,-0.21 0.049,-0.261C0.049,-0.312 0.06,-0.357 0.083,-0.398C0.106,-0.438 0.137,-0.469 0.177,-0.492C0.216,-0.515 0.261,-0.526 0.31,-0.526C0.359,-0.526 0.404,-0.515 0.444,-0.492C0.483,-0.469 0.514,-0.438 0.537,-0.398C0.56,-0.357 0.571,-0.312 0.571,-0.261C0.571,-0.21 0.56,-0.165 0.537,-0.125C0.514,-0.084 0.483,-0.053 0.444,-0.03C0.404,-0.007 0.359,0.004 0.31,0.004ZM0.31,-0.041C0.35,-0.041 0.386,-0.05 0.418,-0.069C0.449,-0.088 0.474,-0.114 0.493,-0.147C0.511,-0.18 0.52,-0.218 0.52,-0.261C0.52,-0.304 0.511,-0.342 0.493,-0.375C0.474,-0.408 0.449,-0.434 0.418,-0.453C0.386,-0.472 0.35,-0.481 0.31,-0.481C0.27,-0.481 0.234,-0.472 0.203,-0.453C0.171,-0.434 0.146,-0.408 0.128,-0.375C0.109,-0.342 0.1,-0.304 0.1,-0.261C0.1,-0.218 0.109,-0.18 0.128,-0.147C0.146,-0.114 0.171,-0.088 0.203,-0.069C0.234,-0.05 0.27,-0.041 0.31,-0.041Z" style="fill:rgb(34,60,77);fill-rule:nonzero;"/>
                </g>
                <g transform="matrix(84.3216,0,0,84.3216,1553.98,659.655)">
                    <path d="M0.242,0.004C0.198,0.004 0.164,-0.009 0.141,-0.034C0.118,-0.059 0.106,-0.093 0.106,-0.137L0.106,-0.742L0.156,-0.742L0.156,-0.143C0.156,-0.109 0.164,-0.083 0.179,-0.066C0.194,-0.048 0.217,-0.039 0.248,-0.039C0.265,-0.039 0.282,-0.042 0.298,-0.049L0.302,-0.007C0.283,0 0.263,0.004 0.242,0.004Z" style="fill:rgb(34,60,77);fill-rule:nonzero;"/>
                </g>
                <g transform="matrix(84.3216,0,0,84.3216,1579.11,659.655)">
                    <path d="M0.563,-0.522L0.563,-0L0.515,-0L0.515,-0.112C0.498,-0.075 0.472,-0.047 0.438,-0.027C0.404,-0.006 0.364,0.004 0.318,0.004C0.25,0.004 0.197,-0.015 0.158,-0.053C0.119,-0.091 0.1,-0.146 0.1,-0.217L0.1,-0.522L0.15,-0.522L0.15,-0.221C0.15,-0.162 0.165,-0.118 0.195,-0.087C0.225,-0.056 0.267,-0.041 0.322,-0.041C0.381,-0.041 0.427,-0.059 0.462,-0.096C0.496,-0.133 0.513,-0.182 0.513,-0.244L0.513,-0.522L0.563,-0.522Z" style="fill:rgb(34,60,77);fill-rule:nonzero;"/>
                </g>
                <g transform="matrix(84.3216,0,0,84.3216,1635.52,659.655)">
                    <path d="M0.349,-0.033C0.336,-0.021 0.321,-0.012 0.302,-0.006C0.283,0.001 0.263,0.004 0.242,0.004C0.197,0.004 0.162,-0.009 0.137,-0.034C0.112,-0.059 0.1,-0.093 0.1,-0.138L0.1,-0.636L0.15,-0.636L0.15,-0.522L0.316,-0.522L0.316,-0.479L0.15,-0.479L0.15,-0.143C0.15,-0.109 0.158,-0.083 0.175,-0.066C0.191,-0.048 0.215,-0.039 0.247,-0.039C0.28,-0.039 0.307,-0.049 0.328,-0.068L0.349,-0.033Z" style="fill:rgb(34,60,77);fill-rule:nonzero;"/>
                </g>
                <g transform="matrix(84.3216,0,0,84.3216,1667.73,659.655)">
                    <path d="M0.106,-0.522L0.156,-0.522L0.156,-0L0.106,-0L0.106,-0.522ZM0.131,-0.649C0.12,-0.649 0.11,-0.653 0.102,-0.661C0.094,-0.668 0.09,-0.678 0.09,-0.689C0.09,-0.7 0.094,-0.71 0.102,-0.718C0.11,-0.726 0.12,-0.73 0.131,-0.73C0.142,-0.73 0.152,-0.726 0.16,-0.719C0.168,-0.711 0.172,-0.701 0.172,-0.69C0.172,-0.679 0.168,-0.669 0.16,-0.661C0.152,-0.653 0.142,-0.649 0.131,-0.649Z" style="fill:rgb(34,60,77);fill-rule:nonzero;"/>
                </g>
                <g transform="matrix(84.3216,0,0,84.3216,1689.74,659.655)">
                    <path d="M0.31,0.004C0.261,0.004 0.216,-0.007 0.177,-0.03C0.137,-0.053 0.106,-0.084 0.083,-0.125C0.06,-0.165 0.049,-0.21 0.049,-0.261C0.049,-0.312 0.06,-0.357 0.083,-0.398C0.106,-0.438 0.137,-0.469 0.177,-0.492C0.216,-0.515 0.261,-0.526 0.31,-0.526C0.359,-0.526 0.404,-0.515 0.444,-0.492C0.483,-0.469 0.514,-0.438 0.537,-0.398C0.56,-0.357 0.571,-0.312 0.571,-0.261C0.571,-0.21 0.56,-0.165 0.537,-0.125C0.514,-0.084 0.483,-0.053 0.444,-0.03C0.404,-0.007 0.359,0.004 0.31,0.004ZM0.31,-0.041C0.35,-0.041 0.386,-0.05 0.418,-0.069C0.449,-0.088 0.474,-0.114 0.493,-0.147C0.511,-0.18 0.52,-0.218 0.52,-0.261C0.52,-0.304 0.511,-0.342 0.493,-0.375C0.474,-0.408 0.449,-0.434 0.418,-0.453C0.386,-0.472 0.35,-0.481 0.31,-0.481C0.27,-0.481 0.234,-0.472 0.203,-0.453C0.171,-0.434 0.146,-0.408 0.128,-0.375C0.109,-0.342 0.1,-0.304 0.1,-0.261C0.1,-0.218 0.109,-0.18 0.128,-0.147C0.146,-0.114 0.171,-0.088 0.203,-0.069C0.234,-0.05 0.27,-0.041 0.31,-0.041Z" style="fill:rgb(34,60,77);fill-rule:nonzero;"/>
                </g>
                <g transform="matrix(84.3216,0,0,84.3216,1742.02,659.655)">
                    <path d="M0.361,-0.526C0.426,-0.526 0.478,-0.507 0.516,-0.469C0.554,-0.431 0.573,-0.376 0.573,-0.305L0.573,-0L0.523,-0L0.523,-0.301C0.523,-0.36 0.508,-0.404 0.479,-0.435C0.449,-0.466 0.407,-0.481 0.354,-0.481C0.293,-0.481 0.244,-0.463 0.209,-0.426C0.174,-0.389 0.156,-0.34 0.156,-0.278L0.156,-0L0.106,-0L0.106,-0.522L0.154,-0.522L0.154,-0.409C0.172,-0.446 0.199,-0.474 0.235,-0.495C0.27,-0.516 0.312,-0.526 0.361,-0.526Z" style="fill:rgb(34,60,77);fill-rule:nonzero;"/>
                </g>
            </g>
        </g>
    </g>
</svg>
