<?xml version="1.0" encoding="UTF-8" standalone="no"?>
<!DOCTYPE svg PUBLIC "-//W3C//DTD SVG 1.1//EN" "http://www.w3.org/Graphics/SVG/1.1/DTD/svg11.dtd">
<svg width="100%" height="100%" viewBox="0 0 512 512" version="1.1" xmlns="http://www.w3.org/2000/svg" xmlns:xlink="http://www.w3.org/1999/xlink" xml:space="preserve" xmlns:serif="http://www.serif.com/" style="fill-rule:evenodd;clip-rule:evenodd;stroke-linejoin:round;stroke-miterlimit:2;">
    <g transform="matrix(1,0,0,1,-1124,0)">
        <rect id="Artboard3" x="1124" y="0" width="512" height="512" style="fill:none;"/>
        <g id="Artboard31" serif:id="Artboard3">
            <g transform="matrix(1,0,0,1,562.483,-0.0464993)">
                <path d="M717.791,189.384C693.39,177.171 676.621,151.934 676.621,122.812C676.621,81.752 709.956,48.416 751.017,48.416L809.881,48.416L809.881,48.046L825.881,48.046L825.881,48.416L883.954,48.416C925.014,48.416 958.35,81.752 958.35,122.812C958.35,151.94 941.574,177.18 917.165,189.391C941.596,201.473 958.414,226.656 958.414,255.737C958.414,296.561 925.27,329.705 884.445,329.705C860.817,329.705 839.762,318.603 826.216,301.335L826.268,314.868L826.353,314.869C826.353,314.869 825.686,368.75 825.686,389.079C825.686,430.18 792.392,463.548 751.384,463.548C710.375,463.548 677.081,430.18 677.081,389.079C677.081,360.317 693.386,335.342 717.229,322.939C693.335,310.443 676.998,285.296 676.998,256.338L676.998,256.176C676.998,227.019 693.596,201.734 717.791,189.384ZM839.231,197.208L825.905,197.208L825.926,210.51C829.78,205.533 834.254,201.06 839.231,197.208ZM809.74,197.445L751.336,197.445C719.138,197.445 692.998,223.762 692.998,256.176L692.998,256.18C692.998,256.233 692.998,256.286 692.997,256.338C692.997,286.651 715.796,311.646 745.058,314.877C747.143,314.701 749.253,314.611 751.384,314.611C764.743,314.611 792.031,314.718 809.74,314.794L809.74,197.445ZM825.74,314.866C825.879,314.866 825.996,314.867 826.089,314.867L826.068,301.145C825.958,301.004 825.848,300.862 825.74,300.721L825.74,314.866ZM825.74,210.752C825.783,210.696 825.826,210.639 825.87,210.583L825.82,197.445L825.74,197.445L825.74,210.752ZM825.881,181.208L883.954,181.208C916.183,181.208 942.35,155.042 942.35,122.812C942.35,90.582 916.183,64.416 883.954,64.416L825.881,64.416L825.881,181.208ZM809.881,64.416L751.017,64.416C718.787,64.416 692.621,90.582 692.621,122.812C692.621,155.042 718.787,181.208 751.017,181.208L809.881,181.208L809.881,64.416ZM745.051,331.061C715.887,334.228 693.153,359.014 693.153,389.079C693.153,421.29 719.245,447.44 751.384,447.44C783.522,447.44 809.614,421.29 809.614,389.079C809.614,374.516 809.526,336.595 809.514,331.338L751.498,331.338C749.326,331.338 747.176,331.244 745.051,331.061ZM884.445,197.768C852.451,197.768 826.476,223.743 826.476,255.737C826.476,287.73 852.451,313.705 884.445,313.705C916.439,313.705 942.414,287.73 942.414,255.737C942.414,223.743 916.439,197.768 884.445,197.768Z" style="fill:rgb(181, 187, 196);"/>
            </g>
        </g>
    </g>
</svg>
