<?xml version="1.0" encoding="UTF-8" standalone="no"?>
<!DOCTYPE svg PUBLIC "-//W3C//DTD SVG 1.1//EN" "http://www.w3.org/Graphics/SVG/1.1/DTD/svg11.dtd">
<svg width="100%" height="100%" viewBox="0 0 512 512" version="1.1" xmlns="http://www.w3.org/2000/svg" xmlns:xlink="http://www.w3.org/1999/xlink" xml:space="preserve" xmlns:serif="http://www.serif.com/" style="fill-rule:evenodd;clip-rule:evenodd;stroke-linejoin:round;stroke-miterlimit:2;">
    <path d="M100.609,48C71.709,48 48,71.709 48,100.609L48,411.391C48,440.291 71.709,464 100.609,464L411.391,464C440.29,464 464,440.299 464,411.406L464,100.609C464,71.71 440.29,48 411.391,48L100.609,48ZM100.609,64L411.391,64C431.564,64 448,80.436 448,100.609L448,411.406C448,431.57 431.564,448 411.391,448L100.609,448C80.438,448 64,431.562 64,411.391L64,100.609C64,80.438 80.438,64 100.609,64ZM234.656,240.938C230.268,240.938 226.657,244.549 226.656,248.938L226.656,364.797C226.656,372.667 225.093,375.952 223.969,377.141C222.844,378.329 220.896,379.141 216,379.141C206.899,379.141 201.088,374.053 196.281,365.641C194.859,363.149 192.201,361.605 189.332,361.605C187.89,361.605 186.473,361.995 185.234,362.734L155.891,380.281C152.367,382.391 151.011,386.888 152.781,390.594C162.511,410.932 185.802,432 218.188,432C235.556,432 251.212,427.383 262.516,416.875C273.819,406.367 280,390.406 280,370.406L280,248.938C280,244.549 276.389,240.938 272,240.938L234.656,240.938ZM365.016,240.938C330.832,240.938 306.672,265.05 306.672,295.391C306.672,311.235 311.54,324.094 319.969,333.797C328.398,343.5 339.839,350.054 352.766,355.688L361.344,359.453C369.028,362.891 374.306,365.639 376.828,367.875C379.36,370.12 379.953,371.134 379.953,375.453C379.953,378.503 379.13,380.222 377.281,381.781C375.432,383.34 371.991,384.797 366.234,384.797C359.612,384.797 355.69,382.853 351.797,379.391C347.904,375.928 344.387,370.631 340.781,364.609C339.338,362.198 336.726,360.717 333.916,360.717C332.307,360.717 330.735,361.203 329.406,362.109L302.375,380.531C299.097,382.771 297.957,387.129 299.719,390.688C310.738,412.961 332.369,432 367.047,432C384.788,432 400.877,427.32 412.812,417.578C424.749,407.836 431.993,392.882 431.984,375.016C431.981,358.842 427.045,345.742 418,335.812C408.955,325.882 396.511,319.046 381.5,312.469L381.484,312.469L372.922,308.719L372.906,308.703C365.745,305.529 361.12,302.944 359.031,301C356.94,299.054 356.547,298.35 356.547,294.688C356.547,290.147 358.389,287.609 365,287.609C368.791,287.609 370.952,288.276 373.078,289.719C375.205,291.161 377.533,293.771 380.109,298.5C381.51,301.066 384.209,302.667 387.132,302.667C388.689,302.667 390.213,302.213 391.516,301.359L418.281,283.781C421.769,281.496 422.916,276.848 420.891,273.203C408.464,250.835 388.769,240.937 365.016,240.938ZM242.656,256.938L264,256.938L264,370.406C264,387.238 259.246,398.072 251.625,405.156C244.004,412.24 232.755,416 218.188,416C196.106,416 180.771,402.679 172.016,389.281L187.906,379.781C194.665,388.131 203.561,395.141 216,395.141C222.952,395.141 230.333,393.682 235.578,388.141C240.823,382.599 242.656,374.711 242.656,364.797L242.656,256.938ZM365.016,256.938C382.051,256.938 392.626,262.8 401.844,275.438L388.547,284.188C386.447,281.547 384.727,278.286 382.047,276.469C377.051,273.081 371.089,271.609 365,271.609C351.467,271.609 340.547,282.172 340.547,294.688C340.547,301.577 343.352,308.261 348.141,312.719C352.93,317.176 358.879,319.988 366.453,323.344C366.458,323.349 366.464,323.354 366.469,323.359L375.062,327.125C389.261,333.346 399.672,339.457 406.172,346.594C412.672,353.73 415.984,361.844 415.984,375.031C415.991,388.797 411.081,398.334 402.703,405.172C394.325,412.01 381.954,416 367.047,416C341.183,416 327.045,404.81 317.719,389.438L332.188,379.578C334.902,383.64 337.236,387.844 341.172,391.344C347.363,396.85 355.905,400.797 366.234,400.797C374.718,400.797 382.143,398.612 387.594,394.016C393.045,389.419 395.953,382.467 395.953,375.453C395.953,367.716 392.689,360.563 387.438,355.906C382.186,351.25 375.758,348.364 367.812,344.812C367.797,344.807 367.781,344.802 367.766,344.797L359.172,341.031C359.167,341.026 359.161,341.021 359.156,341.016C347.283,335.841 338.078,330.222 332.062,323.297C326.047,316.372 322.672,308.162 322.672,295.391C322.672,272.995 337.807,256.937 365.016,256.938Z" style="fill:rgb(181, 187, 196);fill-rule:nonzero;"/>
</svg>
