<?xml version="1.0" encoding="UTF-8" standalone="no"?>
<!DOCTYPE svg PUBLIC "-//W3C//DTD SVG 1.1//EN" "http://www.w3.org/Graphics/SVG/1.1/DTD/svg11.dtd">
<svg width="100%" height="100%" viewBox="0 0 512 512" version="1.1" xmlns="http://www.w3.org/2000/svg" xmlns:xlink="http://www.w3.org/1999/xlink" xml:space="preserve" xmlns:serif="http://www.serif.com/" style="fill-rule:evenodd;clip-rule:evenodd;stroke-linejoin:round;stroke-miterlimit:2;">
    <path d="M111.012,232.43C110.774,228.021 114.161,224.249 118.57,224.012C122.979,223.774 126.751,227.161 126.988,231.57C129.145,271.631 141.965,303.599 164.157,325.855C186.227,347.987 217.451,360.375 255.966,361.992C334.062,358.005 384.534,302.62 384,232.061C383.967,227.645 387.524,224.034 391.939,224C396.355,223.967 399.966,227.524 400,231.939C400.6,311.174 344.185,373.69 256.391,377.99C256.154,378.002 255.916,378.003 255.679,377.994C212.446,376.256 177.573,361.969 152.827,337.152C128.135,312.39 113.411,277.004 111.012,232.43Z"/>
    <g transform="matrix(1.05172,0,0,1.03846,-35.1034,-9.84615)">
        <path d="M205,152C221.006,152 234,175.3 234,204C234,232.7 221.006,256 205,256C188.994,256 176,232.7 176,204C176,175.3 188.994,152 205,152ZM205,167.407C203.845,167.407 202.927,168.264 201.967,169.156C200.383,170.63 198.995,172.572 197.744,174.815C193.584,182.275 191.213,192.627 191.213,204C191.213,215.373 193.584,225.725 197.744,233.185C198.995,235.428 200.383,237.37 201.967,238.844C202.927,239.736 203.845,240.593 205,240.593C206.155,240.593 207.073,239.736 208.033,238.844C209.617,237.37 211.005,235.428 212.256,233.185C216.416,225.725 218.787,215.373 218.787,204C218.787,192.627 216.416,182.275 212.256,174.815C211.005,172.572 209.617,170.63 208.033,169.156C207.073,168.264 206.155,167.407 205,167.407Z"/>
    </g>
    <g transform="matrix(1.05172,0,0,1.03846,116.897,-9.84615)">
        <path d="M205,152C221.006,152 234,175.3 234,204C234,232.7 221.006,256 205,256C188.994,256 176,232.7 176,204C176,175.3 188.994,152 205,152ZM205,167.407C203.845,167.407 202.927,168.264 201.967,169.156C200.383,170.63 198.995,172.572 197.744,174.815C193.584,182.275 191.213,192.627 191.213,204C191.213,215.373 193.584,225.725 197.744,233.185C198.995,235.428 200.383,237.37 201.967,238.844C202.927,239.736 203.845,240.593 205,240.593C206.155,240.593 207.073,239.736 208.033,238.844C209.617,237.37 211.005,235.428 212.256,233.185C216.416,225.725 218.787,215.373 218.787,204C218.787,192.627 216.416,182.275 212.256,174.815C211.005,172.572 209.617,170.63 208.033,169.156C207.073,168.264 206.155,167.407 205,167.407Z"/>
    </g>
    <path d="M293.166,367.16C290.871,363.388 292.069,358.462 295.84,356.166C299.612,353.871 304.538,355.069 306.834,358.84C306.834,358.84 320.662,381.558 320.668,381.566C324.441,386.701 328.77,389.85 333.306,391.246C340.441,393.443 347.854,391.274 353.466,386.938C361.77,380.522 366.31,368.999 359.357,358.458L344.39,336.507C341.903,332.859 342.845,327.877 346.493,325.39C350.141,322.903 355.123,323.845 357.61,327.493L372.61,349.493C372.63,349.523 372.65,349.552 372.669,349.582C384.889,368.026 377.783,388.37 363.248,399.6C353.628,407.032 340.829,410.304 328.597,406.538C321.101,404.23 313.723,399.278 307.515,390.685C307.392,390.514 307.276,390.339 307.166,390.16L293.166,367.16Z"/>
    <path d="M256,42C374.11,42 470,137.89 470,256C470,374.11 374.11,470 256,470C137.89,470 42,374.11 42,256C42,137.89 137.89,42 256,42ZM256,58C146.721,58 58,146.721 58,256C58,365.279 146.721,454 256,454C365.279,454 454,365.279 454,256C454,146.721 365.279,58 256,58Z"/>
    <path d="M320.292,354.36C317.886,350.658 318.938,345.699 322.64,343.292C326.342,340.886 331.301,341.938 333.708,345.64L346.708,365.64C349.114,369.342 348.062,374.301 344.36,376.708C340.658,379.114 335.699,378.062 333.292,374.36L320.292,354.36Z"/>
</svg>
