<?xml version="1.0" encoding="UTF-8" standalone="no"?>
<!DOCTYPE svg PUBLIC "-//W3C//DTD SVG 1.1//EN" "http://www.w3.org/Graphics/SVG/1.1/DTD/svg11.dtd">
<svg width="100%" height="100%" viewBox="0 0 64 64" version="1.1" xmlns="http://www.w3.org/2000/svg" xmlns:xlink="http://www.w3.org/1999/xlink" xml:space="preserve" xmlns:serif="http://www.serif.com/" style="fill-rule:evenodd;clip-rule:evenodd;stroke-linejoin:round;stroke-miterlimit:2;">
    <rect id="Artboard1" x="0" y="0" width="64" height="64" style="fill:rgb(74,172,231);"/>
    <g id="Artboard11" serif:id="Artboard1">
        <g transform="matrix(1,0,0,1,-8,4.5)">
            <g transform="matrix(26,0,0,26,14.364,36.2)">
                <path d="M0.272,0.008C0.199,0.008 0.141,-0.012 0.1,-0.054C0.059,-0.095 0.038,-0.152 0.038,-0.225L0.174,-0.225C0.174,-0.19 0.183,-0.163 0.201,-0.144C0.218,-0.124 0.243,-0.114 0.274,-0.114L0.385,-0.114C0.414,-0.114 0.438,-0.12 0.457,-0.133C0.475,-0.145 0.484,-0.161 0.484,-0.182L0.484,-0.216C0.484,-0.249 0.46,-0.269 0.412,-0.277L0.228,-0.308C0.168,-0.318 0.123,-0.337 0.092,-0.366C0.061,-0.394 0.045,-0.43 0.045,-0.474L0.045,-0.53C0.045,-0.565 0.054,-0.596 0.074,-0.624C0.093,-0.651 0.12,-0.671 0.155,-0.686C0.19,-0.701 0.23,-0.708 0.276,-0.708L0.389,-0.708C0.432,-0.708 0.471,-0.699 0.504,-0.681C0.537,-0.663 0.563,-0.638 0.582,-0.606C0.6,-0.573 0.609,-0.536 0.609,-0.493L0.473,-0.493C0.473,-0.521 0.465,-0.544 0.45,-0.561C0.435,-0.578 0.414,-0.586 0.389,-0.586L0.276,-0.586C0.248,-0.586 0.226,-0.58 0.209,-0.568C0.192,-0.556 0.183,-0.54 0.183,-0.52L0.183,-0.493C0.183,-0.46 0.206,-0.439 0.252,-0.431L0.435,-0.399C0.496,-0.388 0.542,-0.37 0.574,-0.343C0.606,-0.316 0.622,-0.281 0.622,-0.238L0.622,-0.172C0.622,-0.137 0.612,-0.105 0.593,-0.078C0.573,-0.051 0.545,-0.029 0.51,-0.015C0.475,0 0.434,0.008 0.387,0.008L0.272,0.008Z" style="fill:rgb(237,237,237);fill-rule:nonzero;"/>
            </g>
            <g transform="matrix(26,0,0,26,31.42,36.2)">
                <path d="M0.627,0.049L0.546,-0.031C0.505,-0.005 0.461,0.008 0.415,0.008L0.309,0.008C0.256,0.008 0.21,-0.003 0.17,-0.026C0.129,-0.048 0.098,-0.079 0.076,-0.12C0.053,-0.16 0.042,-0.207 0.042,-0.26L0.042,-0.44C0.042,-0.493 0.053,-0.54 0.076,-0.581C0.098,-0.621 0.129,-0.652 0.17,-0.675C0.21,-0.697 0.256,-0.708 0.309,-0.708L0.415,-0.708C0.468,-0.708 0.514,-0.697 0.555,-0.675C0.595,-0.652 0.626,-0.621 0.649,-0.581C0.671,-0.54 0.682,-0.493 0.682,-0.44L0.682,-0.268C0.682,-0.216 0.667,-0.167 0.636,-0.12L0.714,-0.043L0.627,0.049ZM0.415,-0.114C0.428,-0.114 0.44,-0.117 0.453,-0.122L0.362,-0.212L0.449,-0.304L0.536,-0.218C0.541,-0.235 0.544,-0.252 0.544,-0.268L0.544,-0.434C0.544,-0.479 0.532,-0.516 0.509,-0.544C0.485,-0.572 0.454,-0.586 0.415,-0.586L0.309,-0.586C0.27,-0.586 0.239,-0.572 0.216,-0.544C0.192,-0.516 0.18,-0.479 0.18,-0.434L0.18,-0.266C0.18,-0.221 0.192,-0.184 0.216,-0.156C0.239,-0.128 0.27,-0.114 0.309,-0.114L0.415,-0.114Z" style="fill:rgb(237,237,237);fill-rule:nonzero;"/>
            </g>
            <g transform="matrix(26,0,0,26,50.348,36.2)">
                <path d="M0.159,-0C0.13,-0 0.106,-0.009 0.089,-0.026C0.071,-0.043 0.062,-0.065 0.062,-0.093L0.062,-0.7L0.2,-0.7L0.2,-0.12L0.58,-0.12L0.58,-0L0.159,-0Z" style="fill:rgb(237,237,237);fill-rule:nonzero;"/>
            </g>
        </g>
    </g>
</svg>
