<?xml version="1.0" encoding="UTF-8" standalone="no"?>
<!DOCTYPE svg PUBLIC "-//W3C//DTD SVG 1.1//EN" "http://www.w3.org/Graphics/SVG/1.1/DTD/svg11.dtd">
<svg width="100%" height="100%" viewBox="0 0 512 512" version="1.1" xmlns="http://www.w3.org/2000/svg" xmlns:xlink="http://www.w3.org/1999/xlink" xml:space="preserve" xmlns:serif="http://www.serif.com/" style="fill-rule:evenodd;clip-rule:evenodd;stroke-linejoin:round;stroke-miterlimit:2;">
    <g transform="matrix(0.961538,0,0,0.961538,9.84615,9.84615)">
        <path d="M472.32,94.589L472.32,417.411C472.32,447.716 447.716,472.32 417.411,472.32L94.589,472.32C64.284,472.32 39.68,447.716 39.68,417.411L39.68,94.589C39.68,64.284 64.284,39.68 94.589,39.68L417.411,39.68C447.716,39.68 472.32,64.284 472.32,94.589ZM455.68,94.589C455.68,73.468 438.532,56.32 417.411,56.32L94.589,56.32C73.468,56.32 56.32,73.468 56.32,94.589L56.32,417.411C56.32,438.532 73.468,455.68 94.589,455.68L417.411,455.68C438.532,455.68 455.68,438.532 455.68,417.411L455.68,94.589Z" style="fill:rgb(181, 187, 196);"/>
    </g>
    <g transform="matrix(0.81114,0,0,0.81114,20.285,66.3458)">
        <path d="M163.556,374.446C199.491,374.446 220.751,357.231 220.751,330.139L220.751,330.045C220.751,308.315 207.393,296.65 178.607,291.1L164.685,288.466C150.104,285.738 143.708,281.881 143.708,274.544L143.708,274.45C143.708,266.642 150.857,260.904 163.556,260.904C175.973,260.904 184.722,266.454 185.757,275.391L185.851,276.425L217.928,276.425L217.834,274.45C216.611,249.804 197.327,233.812 163.274,233.812C132.137,233.812 109.466,250.65 109.466,276.802L109.466,276.896C109.466,297.685 123.671,310.949 150.575,315.935L164.497,318.569C180.395,321.673 186.415,325.247 186.415,332.961L186.415,333.055C186.415,341.521 177.949,347.354 164.215,347.354C150.951,347.354 140.791,341.616 139.098,332.867L138.91,331.832L106.832,331.832L106.926,333.526C108.431,359.489 129.785,374.446 163.556,374.446Z" style="fill:rgb(181, 187, 196);fill-rule:nonzero;"/>
        <path d="M299.863,374.446C308.517,374.446 316.419,373.223 323.569,370.965L332.317,383.382L363.548,383.382L345.957,358.36C359.409,346.225 366.935,327.505 366.935,304.176L366.935,303.988C366.935,260.81 341.16,233.812 299.863,233.812C258.849,233.812 232.885,260.81 232.885,303.988L232.885,304.176C232.885,347.448 258.661,374.446 299.863,374.446ZM299.863,345.849C280.485,345.849 268.067,329.951 268.067,304.176L268.067,303.988C268.067,278.213 280.579,262.409 299.863,262.409C319.335,262.409 331.847,278.307 331.847,303.988L331.847,304.176C331.847,314.429 329.777,323.272 326.202,330.045L320.182,321.391L288.951,321.391L305.695,345.378C303.814,345.661 301.933,345.849 299.863,345.849Z" style="fill:rgb(181, 187, 196);fill-rule:nonzero;"/>
        <path d="M383.679,372L474.362,372L474.362,344.249L418.202,344.249L418.202,236.258L383.679,236.258L383.679,372Z" style="fill:rgb(181, 187, 196);fill-rule:nonzero;"/>
    </g>
</svg>
