<?xml version="1.0" encoding="UTF-8" standalone="no"?>
<!DOCTYPE svg PUBLIC "-//W3C//DTD SVG 1.1//EN" "http://www.w3.org/Graphics/SVG/1.1/DTD/svg11.dtd">
<svg width="100%" height="100%" viewBox="0 0 385 458" version="1.1" xmlns="http://www.w3.org/2000/svg" xmlns:xlink="http://www.w3.org/1999/xlink" xml:space="preserve" xmlns:serif="http://www.serif.com/" style="fill-rule:evenodd;clip-rule:evenodd;stroke-linejoin:round;stroke-miterlimit:2;">
    <g transform="matrix(1,0,0,1,-1761.7,-34.9065)">
        <g transform="matrix(1,0,0,1,1698,7.78312)">
            <g transform="matrix(1,0,0,1,16.2276,-12.8619)">
                <g transform="matrix(-0.262383,0,0,0.23155,1366.14,-700.425)">
                    <path d="M5025.73,3901.5C5025.73,3512.76 4747.62,3197.62 4404.56,3197.62C4394.99,3197.62 4389.73,3197.62 4389.73,3197.62L4389.73,4151.29L5025.73,4151.29L5025.73,3901.5Z" style="fill:rgb(255,77,109);"/>
                </g>
                <g transform="matrix(0.262383,1.95921e-18,-1.83139e-18,-0.230311,-886.597,1233)">
                    <path d="M5025.73,3905.29C5025.73,3514.45 4747.62,3197.62 4404.56,3197.62L4389.73,3197.62L4389.73,4151.29L5025.73,4151.29C5025.73,4151.29 5025.73,4045.95 5025.73,3905.29Z" style="fill:rgb(255,77,109);"/>
                </g>
                <g transform="matrix(0.262383,-2.20637e-17,-3.96744e-17,-0.23155,-1069.32,1238.15)">
                    <path d="M5025.73,3901.5C5025.73,3512.76 4747.62,3197.62 4404.56,3197.62L4389.73,3197.62L4389.73,4151.29L5025.73,4151.29L5025.73,3901.5ZM4450.71,3268.84C4738.5,3295.43 4964.75,3568.53 4964.75,3901.5C4964.75,3901.5 4964.75,4082.19 4964.75,4082.19L4450.71,4082.19L4450.71,3268.84Z" style="fill:rgb(255,77,109);"/>
                </g>
                <g transform="matrix(-0.262383,5.41964e-17,6.80311e-17,0.23155,1548.86,-700.425)">
                    <path d="M5025.73,3901.5C5025.73,3512.76 4747.62,3197.62 4404.56,3197.62L4389.73,3197.62L4389.73,4151.29L5025.73,4151.29L5025.73,3901.5ZM4450.71,3268.84C4738.5,3295.43 4964.75,3568.53 4964.75,3901.5C4964.75,3901.5 4964.75,4082.19 4964.75,4082.19L4450.71,4082.19L4450.71,3268.84Z" style="fill:rgb(255,77,109);"/>
                </g>
            </g>
        </g>
    </g>
</svg>
