<?xml version="1.0" encoding="UTF-8" standalone="no"?>
<!DOCTYPE svg PUBLIC "-//W3C//DTD SVG 1.1//EN" "http://www.w3.org/Graphics/SVG/1.1/DTD/svg11.dtd">
<svg width="100%" height="100%" viewBox="0 0 349 470" version="1.1" xmlns="http://www.w3.org/2000/svg" xmlns:xlink="http://www.w3.org/1999/xlink" xml:space="preserve" xmlns:serif="http://www.serif.com/" style="fill-rule:evenodd;clip-rule:evenodd;stroke-linejoin:round;stroke-miterlimit:2;">
    <g transform="matrix(1,0,0,1,-81.681,-21.2615)">
        <g transform="matrix(3.2401,0,0,18.238,-198.949,-109.104)">
            <g transform="matrix(-1,0,0,0.955143,193.385,-273.092)">
                <g transform="matrix(0.0809801,0,0,0.0140796,-300.21,248.38)">
                    <path d="M5025.73,3862.14C5025.73,3495.14 4747.62,3197.62 4404.56,3197.62C4394.99,3197.62 4389.73,3197.62 4389.73,3197.62L4389.73,4151.29L5025.73,4151.29L5025.73,3862.14Z" style="fill:rgb(255,77,109);"/>
                </g>
                <g transform="matrix(-0.0809801,-1.26658e-18,1.22448e-17,-0.0132923,462.091,362.856)">
                    <path d="M5025.73,3901.5C5025.73,3512.76 4747.62,3197.62 4404.56,3197.62L4389.73,3197.62L4389.73,4151.29L5025.73,4151.29L5025.73,3901.5ZM4404.97,3214.9C4739.43,3215.15 5010.48,3522.45 5010.48,3901.5L5010.48,4134.02C5010.48,4134.02 4404.97,4134.02 4404.97,4134.02L4404.97,3214.9Z" style="fill:rgb(255,77,109);"/>
                </g>
                <g transform="matrix(-0.0809801,-1.26658e-18,1.22448e-17,-0.0132923,406.157,362.856)">
                    <path d="M5025.73,3901.5C5025.73,3512.76 4747.62,3197.62 4404.56,3197.62L4389.73,3197.62L4389.73,4151.29L5025.73,4151.29L5025.73,3901.5ZM4404.97,3214.9C4739.43,3215.15 5010.48,3522.45 5010.48,3901.5L5010.48,4134.02C5010.48,4134.02 4404.97,4134.02 4404.97,4134.02L4404.97,3214.9Z" style="fill:rgb(255,77,109);"/>
                </g>
            </g>
            <g transform="matrix(0.779023,0,0,0.922656,-149.085,-601.231)">
                <g transform="matrix(0.222267,0,0,0.0333401,246.216,563.085)">
                    <g transform="matrix(274.622,0,0,274.622,579.359,3078.4)">
                        <path d="M0.09,-0.136L0.09,-0.176C0.09,-0.182 0.093,-0.185 0.098,-0.185L0.112,-0.185C0.117,-0.185 0.12,-0.182 0.12,-0.176L0.12,-0.137C0.12,-0.103 0.129,-0.076 0.147,-0.057C0.165,-0.038 0.191,-0.028 0.224,-0.028L0.344,-0.028C0.377,-0.028 0.403,-0.038 0.421,-0.057C0.439,-0.076 0.448,-0.103 0.448,-0.137L0.448,-0.187C0.448,-0.218 0.436,-0.243 0.411,-0.262C0.386,-0.28 0.357,-0.293 0.322,-0.302C0.287,-0.31 0.252,-0.318 0.217,-0.327C0.182,-0.335 0.152,-0.349 0.127,-0.368C0.102,-0.387 0.09,-0.414 0.09,-0.447L0.09,-0.507C0.09,-0.548 0.102,-0.581 0.127,-0.606C0.151,-0.631 0.183,-0.643 0.224,-0.643L0.344,-0.643C0.385,-0.643 0.417,-0.631 0.442,-0.606C0.466,-0.581 0.478,-0.548 0.478,-0.507L0.478,-0.477C0.478,-0.471 0.475,-0.468 0.47,-0.468L0.456,-0.468C0.451,-0.468 0.448,-0.471 0.448,-0.477L0.448,-0.506C0.448,-0.54 0.439,-0.567 0.421,-0.586C0.403,-0.605 0.377,-0.615 0.344,-0.615L0.224,-0.615C0.191,-0.615 0.165,-0.605 0.147,-0.586C0.129,-0.567 0.12,-0.54 0.12,-0.506L0.12,-0.448C0.12,-0.399 0.162,-0.365 0.246,-0.346C0.281,-0.339 0.317,-0.331 0.352,-0.322C0.387,-0.313 0.416,-0.297 0.441,-0.276C0.466,-0.254 0.478,-0.225 0.478,-0.189L0.478,-0.136C0.478,-0.095 0.466,-0.062 0.442,-0.037C0.417,-0.012 0.385,-0 0.344,-0L0.224,-0C0.183,-0 0.151,-0.012 0.127,-0.037C0.102,-0.062 0.09,-0.095 0.09,-0.136Z" style="fill:rgb(218,218,218);fill-rule:nonzero;"/>
                    </g>
                    <g transform="matrix(274.622,0,0,274.622,735.344,3078.4)">
                        <path d="M0.194,-0.028L0.286,-0.028C0.319,-0.028 0.345,-0.038 0.363,-0.057C0.381,-0.076 0.39,-0.103 0.39,-0.137L0.39,-0.24C0.39,-0.274 0.381,-0.301 0.363,-0.32C0.345,-0.339 0.319,-0.349 0.286,-0.349L0.09,-0.349L0.09,-0.137C0.09,-0.103 0.099,-0.076 0.117,-0.057C0.135,-0.038 0.161,-0.028 0.194,-0.028ZM0.286,-0L0.194,-0C0.153,-0 0.121,-0.012 0.097,-0.037C0.072,-0.062 0.06,-0.095 0.06,-0.136L0.06,-0.507C0.06,-0.548 0.072,-0.581 0.097,-0.606C0.121,-0.631 0.153,-0.643 0.194,-0.643L0.38,-0.643C0.386,-0.643 0.389,-0.64 0.389,-0.635L0.389,-0.623C0.389,-0.618 0.386,-0.615 0.38,-0.615L0.194,-0.615C0.161,-0.615 0.135,-0.605 0.117,-0.586C0.099,-0.567 0.09,-0.54 0.09,-0.506L0.09,-0.377L0.286,-0.377C0.327,-0.377 0.359,-0.365 0.384,-0.34C0.408,-0.315 0.42,-0.282 0.42,-0.241L0.42,-0.136C0.42,-0.095 0.408,-0.062 0.384,-0.037C0.359,-0.012 0.327,-0 0.286,-0Z" style="fill:rgb(218,218,218);fill-rule:nonzero;"/>
                    </g>
                </g>
                <g transform="matrix(0.222267,0,0,0.0333401,247.864,570.023)">
                    <g transform="matrix(274.622,0,0,274.622,579.359,3078.4)">
                        <path d="M0.282,-0.371L0.186,-0.371C0.168,-0.371 0.153,-0.368 0.142,-0.363C0.131,-0.357 0.123,-0.351 0.119,-0.345C0.115,-0.338 0.111,-0.332 0.108,-0.327C0.104,-0.321 0.1,-0.318 0.096,-0.318L0.078,-0.318C0.073,-0.318 0.07,-0.321 0.07,-0.327L0.07,-0.634C0.07,-0.64 0.073,-0.643 0.078,-0.643L0.397,-0.643C0.403,-0.643 0.406,-0.64 0.406,-0.635L0.406,-0.623C0.406,-0.618 0.403,-0.615 0.397,-0.615L0.1,-0.615L0.1,-0.35C0.113,-0.383 0.141,-0.399 0.186,-0.399L0.282,-0.399C0.323,-0.399 0.355,-0.387 0.38,-0.364C0.404,-0.34 0.416,-0.307 0.416,-0.266L0.416,-0.136C0.416,-0.095 0.404,-0.062 0.38,-0.037C0.355,-0.012 0.323,-0 0.282,-0L0.204,-0C0.163,-0 0.131,-0.012 0.107,-0.037C0.082,-0.062 0.07,-0.095 0.07,-0.136L0.07,-0.176C0.07,-0.182 0.073,-0.185 0.078,-0.185L0.092,-0.185C0.097,-0.185 0.1,-0.182 0.1,-0.176L0.1,-0.137C0.1,-0.103 0.109,-0.076 0.127,-0.057C0.145,-0.038 0.171,-0.028 0.204,-0.028L0.282,-0.028C0.315,-0.028 0.341,-0.038 0.359,-0.057C0.377,-0.076 0.386,-0.103 0.386,-0.137L0.386,-0.265C0.386,-0.299 0.377,-0.325 0.359,-0.344C0.341,-0.362 0.315,-0.371 0.282,-0.371Z" style="fill:rgb(218,218,218);fill-rule:nonzero;"/>
                    </g>
                    <g transform="matrix(274.622,0,0,274.622,710.079,3078.4)">
                        <path d="M0.09,-0.136L0.09,-0.176C0.09,-0.182 0.093,-0.185 0.098,-0.185L0.112,-0.185C0.117,-0.185 0.12,-0.182 0.12,-0.176L0.12,-0.137C0.12,-0.103 0.129,-0.076 0.147,-0.057C0.165,-0.038 0.191,-0.028 0.224,-0.028L0.344,-0.028C0.377,-0.028 0.403,-0.038 0.421,-0.057C0.439,-0.076 0.448,-0.103 0.448,-0.137L0.448,-0.187C0.448,-0.218 0.436,-0.243 0.411,-0.262C0.386,-0.28 0.357,-0.293 0.322,-0.302C0.287,-0.31 0.252,-0.318 0.217,-0.327C0.182,-0.335 0.152,-0.349 0.127,-0.368C0.102,-0.387 0.09,-0.414 0.09,-0.447L0.09,-0.507C0.09,-0.548 0.102,-0.581 0.127,-0.606C0.151,-0.631 0.183,-0.643 0.224,-0.643L0.344,-0.643C0.385,-0.643 0.417,-0.631 0.442,-0.606C0.466,-0.581 0.478,-0.548 0.478,-0.507L0.478,-0.477C0.478,-0.471 0.475,-0.468 0.47,-0.468L0.456,-0.468C0.451,-0.468 0.448,-0.471 0.448,-0.477L0.448,-0.506C0.448,-0.54 0.439,-0.567 0.421,-0.586C0.403,-0.605 0.377,-0.615 0.344,-0.615L0.224,-0.615C0.191,-0.615 0.165,-0.605 0.147,-0.586C0.129,-0.567 0.12,-0.54 0.12,-0.506L0.12,-0.448C0.12,-0.399 0.162,-0.365 0.246,-0.346C0.281,-0.339 0.317,-0.331 0.352,-0.322C0.387,-0.313 0.416,-0.297 0.441,-0.276C0.466,-0.254 0.478,-0.225 0.478,-0.189L0.478,-0.136C0.478,-0.095 0.466,-0.062 0.442,-0.037C0.417,-0.012 0.385,-0 0.344,-0L0.224,-0C0.183,-0 0.151,-0.012 0.127,-0.037C0.102,-0.062 0.09,-0.095 0.09,-0.136Z" style="fill:rgb(218,218,218);fill-rule:nonzero;"/>
                    </g>
                </g>
            </g>
        </g>
    </g>
</svg>
