<?xml version="1.0" encoding="UTF-8" standalone="no"?>
<!DOCTYPE svg PUBLIC "-//W3C//DTD SVG 1.1//EN" "http://www.w3.org/Graphics/SVG/1.1/DTD/svg11.dtd">
<svg width="100%" height="100%" viewBox="0 0 512 512" version="1.1" xmlns="http://www.w3.org/2000/svg" xmlns:xlink="http://www.w3.org/1999/xlink" xml:space="preserve" xmlns:serif="http://www.serif.com/" style="fill-rule:evenodd;clip-rule:evenodd;stroke-linejoin:round;stroke-miterlimit:2;">
    <g id="Layer1">
        <path d="M261.887,186.382L433.45,186.381C433.51,186.381 433.569,186.381 433.628,186.383C467.042,187.127 493.301,226.644 467.374,260.834C467.318,260.908 467.261,260.981 467.202,261.053L300.202,466.053C300.163,466.101 300.123,466.149 300.082,466.197C293.795,473.556 286.917,476.932 280.53,477.871C264.409,480.24 250.57,466.808 250.007,453.334C250.004,453.264 250.002,453.194 250.001,453.124C250.001,453.124 248.017,325.618 248.017,325.618C214.328,325.618 84.066,325.618 84.109,325.617C60.305,326.026 44.319,313.991 37.663,298.246C31.046,282.593 33.599,262.788 47.927,246.789L215.812,41.929C216.069,41.617 216.348,41.324 216.648,41.054C226.042,32.6 244.061,31.46 254.292,42.011C258.555,46.407 261.66,52.826 261.885,61.8C261.886,61.867 261.887,61.933 261.887,62L261.887,186.382ZM245.887,194.382C245.887,194.382 245.887,62.107 245.886,62.078C245.767,58.091 244.709,55.112 242.806,53.149C238.745,48.962 231.693,49.439 227.743,52.614L60.188,257.071C60.108,257.168 60.027,257.263 59.943,257.356C50.21,268.155 47.928,281.436 52.4,292.016C56.851,302.543 67.938,309.899 83.859,309.619C83.906,309.618 83.953,309.618 84,309.618L255.893,309.618C260.263,309.618 263.824,313.124 263.892,317.493C263.892,317.493 265.997,452.751 265.998,452.771C266.289,458.028 271.909,462.966 278.203,462.041C281.422,461.567 284.691,459.558 287.861,455.869C291.554,451.337 454.705,251.06 454.715,251.048C471.438,228.827 455.044,202.927 433.353,202.381L253.887,202.382C251.766,202.382 249.731,201.54 248.23,200.039C246.73,198.539 245.887,196.504 245.887,194.382Z"/>
    </g>
</svg>
