<?xml version="1.0" encoding="UTF-8" standalone="no"?>
<!DOCTYPE svg PUBLIC "-//W3C//DTD SVG 1.1//EN" "http://www.w3.org/Graphics/SVG/1.1/DTD/svg11.dtd">
<svg width="100%" height="100%" viewBox="0 0 512 512" version="1.1" xmlns="http://www.w3.org/2000/svg" xmlns:xlink="http://www.w3.org/1999/xlink" xml:space="preserve" xmlns:serif="http://www.serif.com/" style="fill-rule:evenodd;clip-rule:evenodd;stroke-linejoin:round;stroke-miterlimit:2;">
    <path d="M308.578,24.016C281.744,23.281 254.746,30.04 231.125,45.031C231.115,45.036 231.104,45.042 231.094,45.047L126.781,111.812C126.765,111.823 126.75,111.834 126.734,111.844L126.719,111.859C96.37,130.907 75.325,162.056 69.25,197.328C64.311,225.11 68.699,253.474 81.078,278.734C72.607,292.382 66.561,307.241 63.938,322.953C63.935,322.969 63.925,322.983 63.922,323C57.501,358.873 65.953,395.886 86.891,425.312C86.902,425.328 86.911,425.343 86.922,425.359L86.938,425.375C131.106,488.344 217.733,506.915 280.688,466.953L385.031,400.562C415.425,381.519 436.483,350.343 442.562,315.047C447.501,287.265 443.113,258.901 430.734,233.641C439.199,220.003 445.233,205.137 447.859,189.438C454.69,153.166 446.208,116.048 424.844,86.594C397.465,47.247 353.256,25.239 308.578,24.016ZM308.234,40.078C347.957,41.213 387.433,60.761 411.781,95.828C411.817,95.875 411.854,95.922 411.891,95.969C430.717,121.909 438.173,154.57 432.125,186.562C432.114,186.62 432.104,186.677 432.094,186.734C429.627,201.541 424.004,215.653 415.5,228.406C413.859,230.864 413.709,234.039 415.109,236.641C427.511,259.667 431.43,286.267 426.797,312.281C426.797,312.297 426.797,312.313 426.797,312.328C421.5,343.08 403.082,370.364 376.531,387C376.516,387.01 376.5,387.021 376.484,387.031L272.109,453.453C216.669,488.645 139.349,472.303 100,416.141C99.99,416.125 99.979,416.109 99.969,416.094C81.486,390.149 74.001,357.374 79.688,325.734C79.693,325.703 79.698,325.672 79.703,325.641C82.17,310.834 87.808,296.722 96.312,283.969C97.953,281.511 98.104,278.336 96.703,275.734C84.301,252.708 80.366,226.092 85,200.078C85.005,200.063 85.01,200.047 85.016,200.031C90.312,169.281 108.722,142.011 135.266,125.375C135.292,125.36 135.318,125.344 135.344,125.328L239.688,58.531L239.719,58.516C260.497,45.338 284.412,39.397 308.234,40.078ZM307.531,71.563C300.54,71.712 293.491,72.677 286.5,74.484C286.401,74.509 286.302,74.535 286.203,74.563C278.03,77.014 270.052,80.342 262.766,85.047L262.75,85.062C262.736,85.071 262.718,85.069 262.703,85.078L157.562,151.984C138.388,163.918 124.865,183.76 121,205.984C116.784,228.802 122.28,252.007 135.312,270.531L135.328,270.547C135.335,270.556 135.337,270.569 135.344,270.578C157.129,301.962 196.167,316.633 233.422,307.016L233.453,307.016C241.868,304.907 249.926,301.531 257.203,296.828L297.219,271.297C297.971,270.844 299.68,270.195 301.719,269.5C308.912,267.687 315.96,270.205 320.188,276.266C322.405,279.465 323.454,283.996 322.734,287.844C321.98,291.88 320.04,294.743 316.312,297.141L211.625,364C210.873,364.453 209.163,365.102 207.125,365.797C200.133,367.554 193.012,364.787 188.719,358.688C186.713,355.638 185.603,351.503 185.844,348.094L185.844,348.078L186.203,344.469C186.58,340.676 184.197,337.114 180.547,336.016L176.719,334.859C162.638,330.522 149.702,324.042 137.781,315.375C137.76,315.364 137.74,315.354 137.719,315.344L132.359,311.516C131.004,310.549 129.379,310.029 127.714,310.029C124.225,310.029 121.12,312.311 120.078,315.641L118.156,321.766C118.09,321.977 118.033,322.19 117.984,322.406C117.242,325.74 116.497,328.797 115.703,332.359C115.668,332.499 115.637,332.64 115.609,332.781C111.831,355.434 116.891,378.674 130.406,397.297C152.203,428.658 191.238,443.347 228.484,433.719C228.584,433.689 228.683,433.658 228.781,433.625C236.976,431.167 244.963,427.834 252.266,423.109L252.219,423.156L357.422,356.188C376.611,344.244 390.147,324.385 394,302.141C394.005,302.125 394.01,302.109 394.016,302.094C397.784,279.445 392.735,256.203 379.219,237.578C357.422,206.217 318.387,191.528 281.141,201.156C281.041,201.18 280.942,201.206 280.844,201.234C272.664,203.687 264.698,207.024 257.406,211.734L217.344,237.281C216.583,237.733 214.894,238.375 212.875,239.062C205.682,240.875 198.632,238.355 194.406,232.297C192.189,229.097 191.14,224.551 191.859,220.703C192.614,216.667 194.538,213.82 198.266,211.422L302.953,144.562L303,144.547C303.761,144.095 305.45,143.453 307.469,142.766C314.634,140.96 321.644,143.476 325.875,149.484C327.88,152.534 328.99,156.668 328.75,160.078L328.75,160.094L328.391,163.703C328.006,167.502 330.391,171.073 334.047,172.172L337.828,173.297L337.844,173.297L337.875,173.312C351.956,177.65 364.892,184.13 376.812,192.797C376.833,192.807 376.854,192.818 376.875,192.828L382.234,196.672C383.59,197.639 385.215,198.159 386.88,198.159C390.369,198.159 393.474,195.877 394.516,192.547L396.375,186.562L396.422,186.422C397.661,182.69 398.498,179.327 399.281,175.812C399.311,175.673 399.337,175.532 399.359,175.391C403.137,152.74 398.091,129.502 384.562,110.891C368.219,87.377 342.206,73.228 314.5,71.688C312.188,71.559 309.862,71.513 307.531,71.563ZM307.922,87.562C309.833,87.52 311.745,87.552 313.641,87.656C336.537,88.911 357.982,100.579 371.5,120.078C371.536,120.131 371.572,120.183 371.609,120.234C382.53,135.225 386.652,154.017 383.578,172.641C383.188,174.378 382.705,175.908 382.281,177.469C370.705,169.583 358.276,163.341 344.938,158.984L344.703,161.25C344.77,160.321 344.014,159.536 344,158.609C343.493,158.448 343.041,158.172 342.531,158.016L343.953,158.438C343.824,152.16 342.71,145.839 339.188,140.547C339.157,140.5 339.125,140.453 339.094,140.406C331.088,128.899 316.755,123.8 303.328,127.281C303.149,127.327 302.972,127.379 302.797,127.438C300.517,128.2 297.708,129.049 294.703,130.859C294.645,130.895 294.588,130.932 294.531,130.969L189.641,197.953C189.63,197.958 189.62,197.964 189.609,197.969C182.617,202.467 177.659,209.562 176.125,217.766C174.556,226.158 176.571,234.654 181.25,241.406C181.25,241.411 181.25,241.417 181.25,241.422C189.256,252.929 203.589,258.028 217.016,254.547C217.194,254.501 217.372,254.449 217.547,254.391C219.827,253.628 222.636,252.779 225.641,250.969C225.698,250.933 225.756,250.897 225.812,250.859L266,225.219C266.016,225.208 266.031,225.198 266.047,225.188C271.697,221.532 278.212,218.767 285.25,216.641C316.077,208.72 348.139,220.797 366.141,246.766C366.177,246.813 366.213,246.86 366.25,246.906C377.179,261.933 381.321,280.76 378.234,299.406C375.192,316.97 364.228,333.097 348.969,342.594C348.948,342.609 348.927,342.625 348.906,342.641L243.625,409.656C243.609,409.667 243.594,409.677 243.578,409.688C237.928,413.343 231.413,416.108 224.375,418.234C193.548,426.155 161.486,414.078 143.484,388.109C143.449,388.057 143.412,388.005 143.375,387.953C132.448,372.929 128.303,354.122 131.391,335.484C131.74,333.926 132.11,332.342 132.469,330.812C144.001,338.647 156.379,344.866 169.656,349.203L169.891,346.938C169.824,347.867 170.58,348.651 170.594,349.578C171.101,349.74 171.553,350.015 172.062,350.172L170.641,349.75C170.77,356.026 171.885,362.333 175.406,367.625C175.437,367.672 175.468,367.719 175.5,367.766C183.444,379.184 197.659,384.809 211.266,381.281C211.444,381.235 211.622,381.183 211.797,381.125C214.077,380.362 216.886,379.513 219.891,377.703C219.948,377.667 220.006,377.631 220.062,377.594L324.953,310.609C324.958,310.604 324.964,310.599 324.969,310.594C331.961,306.096 336.935,299.001 338.469,290.797C340.038,282.405 338.023,273.909 333.344,267.156C333.339,267.151 333.333,267.146 333.328,267.141C325.324,255.636 311.004,250.535 297.578,254.016C297.399,254.062 297.222,254.114 297.047,254.172C294.767,254.935 291.958,255.783 288.953,257.594C288.895,257.629 288.838,257.666 288.781,257.703L248.594,283.344C248.578,283.354 248.562,283.365 248.547,283.375C242.842,287.066 236.379,289.802 229.516,291.516C229.495,291.521 229.474,291.526 229.453,291.531C198.592,299.509 166.476,287.405 148.453,261.406C148.443,261.391 148.432,261.375 148.422,261.359C137.759,246.224 133.306,227.352 136.734,208.859C136.74,208.828 136.745,208.797 136.75,208.766C139.793,191.202 150.756,175.075 166.016,165.578C166.037,165.563 166.057,165.547 166.078,165.531L271.344,98.547C271.365,98.537 271.385,98.526 271.406,98.516C277.07,94.851 283.599,92.081 290.656,89.953C296.404,88.48 302.188,87.69 307.922,87.562Z" style="fill:rgb(181, 187, 196);fill-rule:nonzero;"/>
</svg>
