<?xml version="1.0" encoding="UTF-8" standalone="no"?>
<!DOCTYPE svg PUBLIC "-//W3C//DTD SVG 1.1//EN" "http://www.w3.org/Graphics/SVG/1.1/DTD/svg11.dtd">
<svg width="100%" height="100%" viewBox="0 0 512 512" version="1.1" xmlns="http://www.w3.org/2000/svg" xmlns:xlink="http://www.w3.org/1999/xlink" xml:space="preserve" xmlns:serif="http://www.serif.com/" style="fill-rule:evenodd;clip-rule:evenodd;stroke-linejoin:round;">
    <g id="tailwind-svgrepo-com.svg" transform="matrix(0.589388,0,0,0.589388,256,256)">
        <g transform="matrix(1,0,0,1,-400,-400)">
            <g id="SVGRepo_iconCarrier">
                <path d="M400,160C300.444,160 238.222,213.333 213.333,319.999C250.667,266.666 294.222,246.667 344,259.999C372.401,267.607 392.701,289.683 415.17,314.119C451.773,353.927 494.137,399.999 586.667,399.999C686.224,399.999 748.443,346.666 773.333,240C736,293.333 692.443,313.333 642.667,299.999C614.267,292.392 593.968,270.317 571.499,245.88C534.896,206.073 492.53,160 400,160ZM213.333,399.999C113.778,399.999 51.556,453.332 26.667,560C64,506.666 107.556,486.666 157.333,499.999C185.734,507.606 206.034,529.682 228.503,554.117C265.106,593.925 307.47,640 400,640C499.556,640 561.776,586.667 586.667,479.999C549.333,533.332 505.778,553.333 456,540C427.599,532.391 407.299,510.316 384.83,485.879C348.227,446.072 305.863,399.999 213.333,399.999Z" style="fill:none;stroke:rgb(174,172,172);stroke-width:15px;"/>
            </g>
        </g>
    </g>
</svg>
