<?xml version="1.0" encoding="UTF-8" standalone="no"?>
<!DOCTYPE svg PUBLIC "-//W3C//DTD SVG 1.1//EN" "http://www.w3.org/Graphics/SVG/1.1/DTD/svg11.dtd">
<svg width="100%" height="100%" viewBox="0 0 512 512" version="1.1" xmlns="http://www.w3.org/2000/svg" xmlns:xlink="http://www.w3.org/1999/xlink" xml:space="preserve" xmlns:serif="http://www.serif.com/" style="fill-rule:evenodd;clip-rule:evenodd;stroke-linejoin:round;stroke-miterlimit:2;">
    <g transform="matrix(0.948349,0,0,0.948349,13.3779,13.1404)">
        <path d="M184.304,332.673C162.435,325.306 139.305,312.298 116.033,292.497C115.769,292.272 115.519,292.029 115.286,291.772C53.388,223.377 38.018,145.224 49.59,66.414C50.104,62.919 52.849,60.174 56.345,59.661C136.293,47.935 226.014,72.663 270.068,119.001C291.359,141.395 306.105,163.802 315.35,185.214C362.739,164.713 412.335,160.203 463.016,168.328C466.574,168.898 469.311,171.777 469.702,175.359C479.193,262.293 458.599,343.049 413.321,388.033C350.832,450.114 288.251,461.749 244.626,445.297C233.19,440.985 222.967,434.749 214.28,426.929C213.322,426.537 212.425,425.95 211.65,425.17C210.968,424.485 210.436,423.707 210.054,422.876C188.811,401.176 178.33,369.128 184.304,332.673ZM300.86,192.019C292.284,171.975 278.435,151.022 258.473,130.025C218.423,87.9 137.727,65.731 64.601,74.693C55.338,146.75 70.348,218.045 126.8,280.649C147.613,298.285 168.243,310.125 187.842,316.973C191.89,302.854 198.417,288.214 207.763,273.418L178.187,273.725C173.772,273.77 170.15,270.223 170.104,265.808C170.059,261.393 173.606,257.771 178.021,257.725L219.042,257.3C220.851,254.949 222.734,252.598 224.691,250.247L190.23,215.218L113.053,214.793C108.637,214.769 105.073,211.164 105.097,206.749C105.121,202.334 108.726,198.769 113.141,198.793L174.403,199.131L132.086,156.118C131.503,156.25 130.895,156.318 130.271,156.314L90.848,156.097C86.433,156.073 82.868,152.469 82.892,148.053C82.916,143.638 86.521,140.073 90.936,140.097L116.464,140.238L76.476,99.592C73.38,96.445 73.421,91.375 76.568,88.279C79.716,85.182 84.785,85.224 87.882,88.371L128.053,129.203L128.152,111.131C128.176,106.716 131.781,103.151 136.196,103.175C140.611,103.2 144.176,106.804 144.152,111.219L143.978,142.758C143.974,143.552 143.854,144.318 143.634,145.041L185.238,187.329L185.572,126.654C185.596,122.239 189.201,118.674 193.616,118.698C198.031,118.723 201.596,122.327 201.572,126.742L201.149,203.503L235.343,238.259C236.423,237.117 237.522,235.975 238.64,234.834C238.777,234.694 238.919,234.559 239.065,234.43C241.112,232.626 243.165,230.86 245.224,229.132C245.223,229.107 245.223,229.082 245.223,229.057L244.843,194.133C244.795,189.718 248.34,186.095 252.755,186.047C257.17,185.999 260.794,189.544 260.842,193.959L261.089,216.639C274.136,207.027 287.403,198.849 300.86,192.019ZM229.476,418.722C235.653,423.525 242.626,427.443 250.271,430.326C289.691,445.192 345.58,432.778 402.044,376.682C443.411,335.584 461.762,262.354 454.415,183.217C406.313,176.511 359.29,182.016 314.461,203.173C292.352,213.608 270.782,227.838 249.861,246.244C222.537,274.204 207.108,302.629 201.319,328.885C194.435,360.11 201.433,388.103 217.933,407.637L252.093,373.658L250.999,304.763C250.929,300.348 254.456,296.707 258.871,296.637C263.286,296.567 266.927,300.095 266.997,304.509L267.846,357.988L309.571,316.484L309.571,239.305C309.571,234.89 313.155,231.305 317.571,231.305C321.986,231.305 325.571,234.89 325.571,239.305L325.571,300.568L368.35,258.015C368.215,257.432 368.143,256.825 368.143,256.201L368.143,216.777C368.143,212.362 371.728,208.777 376.143,208.777C380.559,208.777 384.143,212.362 384.143,216.777L384.143,242.306L424.568,202.094C427.699,198.981 432.768,198.994 435.882,202.124C438.996,205.255 438.982,210.324 435.852,213.438L395.242,253.833L413.314,253.833C417.73,253.833 421.314,257.418 421.314,261.833C421.314,266.249 417.73,269.833 413.314,269.833L381.775,269.833C380.981,269.833 380.214,269.717 379.49,269.502L337.432,311.338L398.108,311.338C402.523,311.338 406.108,314.922 406.108,319.338C406.108,323.753 402.523,327.338 398.108,327.338L321.347,327.338L276.576,371.871L330.956,370.979C335.371,370.907 339.014,374.433 339.086,378.847C339.159,383.262 335.633,386.905 331.219,386.977L262.508,388.104C261.81,388.115 261.132,388.037 260.483,387.879L229.476,418.722Z"/>
    </g>
</svg>
