<?xml version="1.0" encoding="UTF-8" standalone="no"?>
<!DOCTYPE svg PUBLIC "-//W3C//DTD SVG 1.1//EN" "http://www.w3.org/Graphics/SVG/1.1/DTD/svg11.dtd">
<svg width="100%" height="100%" viewBox="0 0 512 512" version="1.1" xmlns="http://www.w3.org/2000/svg" xmlns:xlink="http://www.w3.org/1999/xlink" xml:space="preserve" xmlns:serif="http://www.serif.com/" style="fill-rule:evenodd;clip-rule:evenodd;stroke-linejoin:round;stroke-miterlimit:2;">
    <path d="M256,24C128.08,24 24,128.08 24,256C24,383.92 128.08,488 256,488C383.92,488 488,383.92 488,256C488,128.08 383.92,24 256,24ZM256,40C375.104,40 472,136.896 472,256C472,375.104 375.104,472 256,472C136.896,472 40,375.104 40,256C40,136.896 136.896,40 256,40ZM121.672,152L124.156,170.156L148.156,346.156L150.047,360.047L164.047,360C199.983,359.88 230.75,336.7 246.75,297.844C249.246,320.268 251.558,340.965 252.094,345.781L253.688,360L268,360C304.656,360 336.184,337.057 352.344,298.641L402.828,174.016L411.75,152L388,152C362.056,152 327.247,162.451 308.719,212.203L308.594,212.547L308.484,212.906C308.284,213.522 307.94,214.614 307.484,216.062C304.156,194.054 301.02,173.394 299.828,165.578L297.75,152L284,152C230.96,152 214.091,197.315 208.547,212.203C208.539,212.219 208.539,212.226 208.531,212.25C203.331,174.37 170.424,152 140,152L121.672,152ZM140,168C163.632,168 190.982,186.508 193.094,218.484C193.094,218.484 196.747,282.1 196.859,287.156C198.859,281.748 223.547,217.781 223.547,217.781C233.307,191.565 249.32,168 284,168C284,168 301.26,281.506 301.844,286.922C303.372,281.514 323.719,217.797 323.719,217.797C333.479,191.573 352.024,168 388,168L337.594,292.438C327.01,317.598 304.328,344 268,344C268,344 255.646,233.3 255.406,230.828C254.462,233.412 232.719,289.859 232.719,289.859C222.487,315.963 200.328,343.88 164,344L140,168Z" style="fill-rule:nonzero;"/>
</svg>
